<?xml version="1.0" encoding="utf-8"?>
<!-- Generator: Adobe Illustrator 22.1.0, SVG Export Plug-In . SVG Version: 6.00 Build 0)  -->
<svg version="1.1" id="Capa_1" xmlns="http://www.w3.org/2000/svg" xmlns:xlink="http://www.w3.org/1999/xlink" x="0px" y="0px"
	 viewBox="0 0 330 315" style="enable-background:new 0 0 330 315;" xml:space="preserve">
<style type="text/css">
	.st0{fill:#020203;}
	.st1{fill:#E52521;}
	.st2{fill:#E94748;}
	.st3{fill:#A71916;}
	.st4{fill:#FFFFFF;}
	.st5{fill:#B2B2B2;}
</style>
<g>
	<path class="st5" d="M215,61.9c0.8,0.5,1.6,1.1,2.4,1.7C216.6,63,215.8,62.5,215,61.9z"/>
	<path class="st5" d="M165,46.9L165,46.9c18.5,0,35.7,5.5,50,15.1C200.7,52.4,183.5,46.9,165,46.9z"/>
	<path class="st5" d="M217.4,63.6c-0.8-0.6-1.6-1.1-2.4-1.7c-14.3-9.5-31.5-15.1-50-15.1c0,0,0,0,0,0c-50,0-90.6,40.6-90.6,90.6
		c0,33.6,18.3,62.9,45.5,78.6l45.1,50.9l0,0v0l19.8-22.4l25.2-28.5c27.2-15.6,45.5-44.9,45.5-78.6C255.6,107,240.5,80,217.4,63.6z
		 M165,205.4C165,205.4,165,205.4,165,205.4c-37.5,0-67.9-30.5-67.9-67.9s30.5-67.9,67.9-67.9c0,0,0,0,0,0
		c37.5,0,67.9,30.5,67.9,67.9S202.4,205.4,165,205.4z"/>
</g>
<g id="_x34_CQR7Y.tif">
	<g>
		<path class="st5" d="M171.5,189.7c-4.7,0-8.4-1.6-11.9-3.8c-4.6-2.9-8.5-6.5-12-10.6c-10.5-12.2-19.3-25.7-25.9-40.4
			c-2-4.5-3.5-9.2-4.2-14.1c-1.1-8.1,1.2-14.8,8.1-19.5c2.5-1.7,5.1-3.4,7.7-5.1c1.6-1,2.5-0.8,3.6,0.8c4.3,6.6,8.6,13.2,12.9,19.9
			c0.8,1.3,1.7,2.6,2.5,3.9c1,1.5,0.8,2.4-0.8,3.4c-2,1.3-4,2.7-6.1,3.9c-1.4,0.8-1.8,2-1.7,3.5c0.2,2.4,0.9,4.7,1.9,6.9
			c2.5,5.9,6,11.2,10.5,15.7c1.3,1.3,2.7,2.5,4.3,3.4c1.4,0.8,2.7,0.8,4.1-0.2c2-1.4,4-2.7,6-3.9c1.4-0.9,2.3-0.7,3.2,0.7
			c5.2,8,10.5,16,15.7,24c0.9,1.3,0.7,2.3-0.7,3.1c-3.2,2-6.3,4.2-9.5,6C176.9,188.9,174.1,189.8,171.5,189.7z"/>
		<path class="st5" d="M212.6,137c0.1,3.4-0.3,6.5-0.9,9.7c-0.5,2.4-2.4,3.9-4.7,3.5c-2.2-0.4-3.4-2.5-3-4.9
			c0.5-2.8,0.9-5.6,0.8-8.5c-0.6-14.7-7.1-26.1-19.6-34c-3.6-2.3-7.6-3.8-11.9-4.8c-1.8-0.4-3.1-1.2-3.6-3.1
			c-0.6-2.6,1.7-5.2,4.3-4.7c5,0.9,9.8,2.7,14.2,5.3c12.8,7.5,20.6,18.6,23.5,33.1C212.4,131.4,212.7,134.3,212.6,137z"/>
		<path class="st5" d="M192.1,137.4c-0.1,1.8-0.2,3.7-0.7,5.6c-0.5,2.1-2.3,3.2-4.6,2.9c-1.9-0.3-3.2-2.1-3-4.1
			c0.2-2.1,0.5-4.1,0.3-6.2c-0.6-7.7-6-14.6-13.5-17c-0.7-0.2-1.4-0.4-2.1-0.6c-2.3-0.7-3.6-2.7-3-4.9c0.5-2,2.6-3.2,4.8-2.6
			c9.3,2.2,15.8,7.8,19.6,16.6C191.4,130.3,192,133.7,192.1,137.4z"/>
	</g>
</g>
</svg>
