<?xml version="1.0" encoding="utf-8"?>
<!-- Generator: Adobe Illustrator 22.1.0, SVG Export Plug-In . SVG Version: 6.00 Build 0)  -->
<svg version="1.1" id="Capa_1" xmlns="http://www.w3.org/2000/svg" xmlns:xlink="http://www.w3.org/1999/xlink" x="0px" y="0px"
	 viewBox="0 0 330 315" style="enable-background:new 0 0 330 315;" xml:space="preserve">
<style type="text/css">
	.st0{fill:#020203;}
	.st1{fill:#E52521;}
	.st2{fill:#E94748;}
	.st3{fill:#A71916;}
	.st4{fill:#FFFFFF;}
	.st5{fill:#B2B2B2;}
</style>
<g>
	<g>
		<path class="st4" d="M215,67.7c0.8,0.5,1.6,1.1,2.4,1.7C216.6,68.8,215.8,68.2,215,67.7z"/>
		<path class="st4" d="M165,52.6L165,52.6c18.5,0,35.7,5.5,50,15.1C200.7,58.2,183.5,52.6,165,52.6z"/>
		<path class="st4" d="M217.4,69.3c-0.8-0.6-1.6-1.1-2.4-1.7c-14.3-9.5-31.5-15.1-50-15.1c0,0,0,0,0,0c-50,0-90.6,40.6-90.6,90.6
			c0,33.6,18.3,62.9,45.5,78.6l45.1,50.9l0,0v0l19.8-22.4l25.2-28.5c27.2-15.6,45.5-44.9,45.5-78.6
			C255.6,112.7,240.5,85.7,217.4,69.3z M165,211.1C165,211.1,165,211.1,165,211.1c-37.5,0-67.9-30.5-67.9-67.9s30.5-67.9,67.9-67.9
			c0,0,0,0,0,0c37.5,0,67.9,30.5,67.9,67.9S202.4,211.1,165,211.1z"/>
	</g>
	<g id="Y4HWrJ.tif">
		<g>
			<path class="st4" d="M144.4,193.7c-2.5,0-4.9,0-7.4,0c-0.4,0-0.7,0-0.9-0.4c-2.2-4.5-5.2-8.4-8.2-12.3
				c-4.2-5.6-8.7-10.9-13.4-16.2c-0.1-0.1-0.2-0.3-0.3-0.4c-0.4-0.4-0.4-0.6,0.1-1c3.2-2.1,6.4-4.3,9.6-6.4c2-1.3,4-2.7,6-4
				c0.5-0.3,0.7-0.3,1,0.2c1.7,3,3.8,5.8,6.3,8.2c1.3,1.3,2.7,2.3,4.5,3c0.3,0.1,0.7,0.2,1,0.3c1.9,0.4,2.6,0.1,3.5-1.6
				c5.8-11.4,12.5-22.2,19.6-32.8c4.7-7,9.7-13.8,15.4-20c2.4-2.6,5-5.2,7.9-7.2c2.9-2,6.3-2.9,9.7-3.3c2.3-0.3,4.5-0.2,6.7,0.3
				c0.7,0.2,1.4,0.4,2,0.8c2.4,1.4,2.2,3.7,0.5,5.1c-9.9,8-17.5,17.9-24.6,28.3c-11.3,16.6-21,34.2-28.7,52.8
				c-0.8,1.9-1.5,3.9-2.2,5.9c-0.2,0.5-0.4,0.7-0.9,0.7C149.3,193.7,146.9,193.7,144.4,193.7z"/>
		</g>
	</g>
</g>
</svg>
