<?xml version="1.0" encoding="utf-8"?>
<!-- Generator: Adobe Illustrator 22.1.0, SVG Export Plug-In . SVG Version: 6.00 Build 0)  -->
<svg version="1.1" id="Layer_1" xmlns="http://www.w3.org/2000/svg" xmlns:xlink="http://www.w3.org/1999/xlink" x="0px" y="0px"
	 viewBox="0 0 436.1 436.1" style="enable-background:new 0 0 436.1 436.1;" xml:space="preserve">
<style type="text/css">
	.st0{fill:#FFFFFF;}
</style>
<path class="st0" d="M0,399.8c0,20.1,16.3,36.3,36.3,36.3h363.4c20.1,0,36.3-16.3,36.3-36.3V36.3c0-20.1-16.3-36.3-36.3-36.3H36.3
	C16.3,0,0,16.3,0,36.3L0,399.8L0,399.8z M227.1,381.6V236.2h-36.3v-54.5h36.3c0-93.7,4-99.9,118.1-99.9v54.5
	c-60.1,0-54.5,3.4-54.5,45.4h54.5v54.5h-54.5v145.4L227.1,381.6L227.1,381.6z"/>
</svg>
