<?xml version="1.0" encoding="utf-8"?>
<!-- Generator: Adobe Illustrator 22.1.0, SVG Export Plug-In . SVG Version: 6.00 Build 0)  -->
<svg version="1.1" id="Capa_1" xmlns="http://www.w3.org/2000/svg" xmlns:xlink="http://www.w3.org/1999/xlink" x="0px" y="0px"
	 viewBox="0 0 330 315" style="enable-background:new 0 0 330 315;" xml:space="preserve">
<style type="text/css">
	.st0{fill:#020203;}
	.st1{fill:#E52521;}
	.st2{fill:#E94748;}
	.st3{fill:#A71916;}
	.st4{fill:#FFFFFF;}
	.st5{fill:#B2B2B2;}
</style>
<g>
	<g>
		<g>
			<path class="st4" d="M165.5,112.8c-2.6,0-4.7,2.1-4.7,4.7v34h-22.2c-2.6,0-4.7,2.1-4.7,4.7c0,2.6,2.1,4.7,4.7,4.7h31.6v-43.3
				C170.2,114.9,168.1,112.8,165.5,112.8z"/>
		</g>
		<path class="st4" d="M164.7,62.4c18.3,0,35.3,5.5,49.5,15C200,67.9,183,62.4,164.7,62.4z"/>
		<path class="st4" d="M214.6,76.7c-14.8-9.9-32.1-15.1-50-15.1c-49.8,0-90.2,40.5-90.2,90.2c0,32.1,17.3,62.1,45.2,78.2l45,50.9
			l12.3-13.9l-1.2-1.2c-3,2.8-6.7,4.2-10.7,4.2c-0.1,0-0.1,0-0.2,0l-0.2,0c-1.5,0-2.9-0.3-4.4-0.7c-6.5-1.8-11.2-8-11.6-15.1
			c-0.4-6.9,4.8-13.8,11.7-15.9c1.4-0.4,2.8-0.6,4.3-0.7l0.2,0c0.1,0,0.1,0,0.2,0c6,0,11.3,3.2,13.9,8.4c0.9,1.7,1.5,2.1,3.9,2.1
			c1.1,0,2.3,0,3.4,0c2.4,0,4.8,0,7.1-0.1l0.4,0l16-18.1c27.9-16.1,45.2-46,45.2-78.2C254.9,121.6,239.8,93.5,214.6,76.7z
			 M164.7,84.8v0.8c36.5,0,66.2,29.7,66.2,66.2c0,36.5-29.7,66.2-66.2,66.2c-36.5,0-66.2-29.7-66.2-66.2c0-36.5,29.7-66.2,66.2-66.2
			L164.7,84.8L164.7,84.8z"/>
		<polygon class="st4" points="184.5,257.2 190.3,250.7 190.3,250.7 		"/>
		<polygon class="st4" points="182.5,259.4 182.5,259.4 184.5,257.2 		"/>
		<g>
			<path class="st4" d="M190.3,250.7c-2.5,0-5,0-7.5,0c-2.9,0-4.6-0.6-6.1-3.5c-2.3-4.7-7.1-7.1-12.1-7c-1.2,0-2.4,0.2-3.6,0.6
				c-5.8,1.7-10.2,7.7-9.9,13.4c0.3,6,4.4,11.4,9.8,12.9c1.3,0.3,2.5,0.5,3.7,0.6c4.7,0.1,8.9-2,11.8-6.4c0.9-1.4,1.9-1.9,3.6-1.8
				c0.8,0,1.7,0.1,2.5,0.1c10.3,0.2,20.5-0.4,30.6-2.3c21-3.9,37.7-14.1,48.7-32.8c4.8-8.3,8.2-17.2,10.4-26.5
				c0.7-2.8,1.9-4,4.8-3.7c2,0.2,3.9-0.2,5.8-0.7c17.3-3.9,29.3-18.6,29.1-36.8c-0.3-17.6-12.5-31.8-29.9-35.5
				c-2.6-0.5-3.6-1.7-4.4-4.1C272.2,99,263,82.9,249.7,69.5c-25.4-25.7-56.3-37.8-92.5-35.7c-16.8,0.9-32.6,5.4-47.3,13.4
				C80.9,62.8,61.7,86.6,52,118c-0.6,1.8-1.3,2.6-3.3,3c-19.7,3.7-32.5,21.5-30.3,40.5c2.5,21.5,22.1,36,43.4,32.2
				c2.8-0.5,3.5-1.3,2.9-4.1c-2.6-12.1-4.1-24.3-3.9-37.3c-0.1-4.5-0.1-9.6,0.7-14.6c0.5-3.6,1.2-7.3,2-10.9
				c12.6-53.4,65.3-88.1,119.3-78.5c42,7.4,74.8,38.8,84,80.5c2.8,12.5,2.8,25.1,1.7,37.7c-1.1,13.9-3.4,27.6-8.2,40.7
				c-7.6,20.8-21.5,34.8-43.4,40.3C208.2,249.7,199.3,250.5,190.3,250.7"/>
		</g>
	</g>
</g>
</svg>
