<?xml version="1.0" encoding="utf-8"?>
<!-- Generator: Adobe Illustrator 22.1.0, SVG Export Plug-In . SVG Version: 6.00 Build 0)  -->
<svg version="1.1" id="Capa_1" xmlns="http://www.w3.org/2000/svg" xmlns:xlink="http://www.w3.org/1999/xlink" x="0px" y="0px"
	 viewBox="0 0 330 315" style="enable-background:new 0 0 330 315;" xml:space="preserve">
<style type="text/css">
	.st0{fill:#020203;}
	.st1{fill:#E52521;}
	.st2{fill:#E94748;}
	.st3{fill:#A71916;}
	.st4{fill:#FFFFFF;}
	.st5{fill:#B2B2B2;}
	.st6{fill:#1C1C1C;}
</style>
<g>
	<g id="Qmry0H.tif_3_">
		<g>
			<path class="st6" d="M179.5,177.2c-12.3,0-24.5,0-36.8,0c-7.3,0-13-5.2-13.2-12.4c-0.2-9-0.1-17.9-0.1-26.9
				c0-6.6,0.2-13.2,0-19.8c-0.3-8.6,6.6-14.1,14.1-14.1c24.3,0.2,48.6,0.1,72.9,0.1c7.9,0,13.5,5.5,13.5,13.5c0,15.4,0,30.8,0,46.3
				c0,7.9-5.6,13.5-13.5,13.5C204.1,177.2,191.8,177.2,179.5,177.2C179.5,177.2,179.5,177.2,179.5,177.2z M180.2,131
				c-13.6,0-27.3,0-40.9,0c-1.5,0-2,0.4-2,1.9c0.1,10.2,0,20.3,0,30.5c0,3.8,1.9,5.7,5.7,5.7c24.6,0,49.2,0,73.8,0
				c4.5,0,6.2-1.7,6.2-6.2c0-9.9,0-19.7,0-29.6c0-2.4,0-2.4-2.5-2.4C207.1,131,193.7,131,180.2,131z M180.2,118.7
				c4.6,0,9.2,0,13.8,0c9.1,0,18.1,0,27.2,0c1.5,0,1.9-0.5,1.8-1.9c-0.2-3-2.2-4.9-5.4-4.9c-25,0-50,0-75.1,0
				c-2.9,0-4.8,1.8-5.1,4.7c-0.2,1.9,0,2.1,1.8,2.1C152.9,118.8,166.6,118.8,180.2,118.7z"/>
			<path class="st6" d="M121.2,138.1c0,7.2,0,14.5,0,21.7c0,3.3,0.6,6.5,2.1,9.4c0.5,1,0.3,1.3-0.8,1.5c-5.1,1-10.9-2-13.6-7.1
				c-3.4-6.6-6.6-13.3-9.9-20c-3.6-7.2-7.1-14.4-10.6-21.6c-2.9-5.9-2-11.8,2.3-15.9c1.1-1.1,2.4-1.9,3.7-2.6
				c21.9-10.8,43.9-21.7,65.8-32.5c7.2-3.5,14.7-0.9,18.2,6.2c2.7,5.4,5.4,10.9,8.1,16.3c1,1.9,1,2-1.1,2c-14.4,0-28.8,0-43.3,0
				c-10.1,0-18.1,6.3-20.4,15.9c-0.4,1.7-0.5,3.4-0.5,5.1C121.2,123.8,121.2,131,121.2,138.1z"/>
			<path class="st6" d="M150.4,147.1c2.5,0,4.3,0.6,5.8,1.9c0.9,0.8,1.4,0.8,2.4,0c3.7-3.1,8.9-2.5,11.9,1.3c2.9,3.7,2.2,9-1.6,11.9
				c-3.1,2.3-7.3,2.3-10.3-0.3c-0.9-0.8-1.4-0.8-2.3,0c-2.9,2.5-6.9,2.7-10,0.5c-3.1-2.1-4.4-5.9-3.3-9.4
				C144.1,149.4,147.3,147.1,150.4,147.1z"/>
		</g>
	</g>
	<g id="dfPCO8.tif_3_">
		<g>
			<path class="st6" d="M165,240.3c-38.5,0-76.9,0-115.4,0c-5.8,0-10.6-2-14.3-6.5c-2.7-3.3-3.7-7.2-3.7-11.4
				c0-56.3,0-112.5,0-168.8c0-12.6,9.2-20.7,20.8-20.6c75.2,0.1,150.3,0.1,225.5,0.1c12.9,0,20.7,7.9,20.7,20.9
				c0,56.1-0.1,112.1-0.2,168.2c0,11.4-7,18.2-18.2,18.2C241.7,240.3,203.3,240.3,165,240.3z M165,48.6c-37.4,0-74.8,0-112.1,0
				c-4.7,0-5.7,0.9-5.7,5.6c0,46.3,0,92.7,0,139c0,5,1,6,6,6c74.5,0,148.9,0,223.4,0c5.4,0,6.3-0.8,6.3-6.3c0-46.1,0-92.3,0-138.4
				c0-5.1-0.8-5.9-6-5.9C239.6,48.6,202.3,48.6,165,48.6z M165.3,214.5c-3.6,0-7.2,0-10.8,0c-3.5,0-5.1,1.7-5.3,5.2
				c-0.3,4.1,1.3,6.6,4.7,6.7c7.5,0.2,14.9,0.2,22.4,0c3.3-0.1,4.8-2.5,4.6-6.5c-0.1-3.5-1.8-5.3-5.1-5.4
				C172.3,214.5,168.8,214.6,165.3,214.5z"/>
			<path class="st6" d="M164.5,279.9c-18.3,0-36.6,0-54.9,0c-3.6,0-6.8-0.7-8.5-4.3c-1.8-4,0.2-8.6,4.5-9.8c2.5-0.7,5.1-1.1,7.7-1.7
				c6.5-1.5,12.2-4.5,16.6-9.6c1-1.2,2.2-1.5,3.6-1.5c21,0,42,0,63,0c1.2,0,2.3,0,3.2,1.1c5.7,6.9,13.4,9.7,21.9,11.1
				c1,0.2,1.9,0.4,2.8,0.7c2.9,1.1,4.8,4,4.7,7.1c-0.2,3.2-2.3,5.9-5.6,6.6c-1.5,0.3-3.1,0.4-4.6,0.4
				C200.7,279.9,182.6,279.9,164.5,279.9z"/>
		</g>
	</g>
</g>
</svg>
