<?xml version="1.0" encoding="utf-8"?>
<!-- Generator: Adobe Illustrator 22.1.0, SVG Export Plug-In . SVG Version: 6.00 Build 0)  -->
<svg version="1.1" id="Capa_1" xmlns="http://www.w3.org/2000/svg" xmlns:xlink="http://www.w3.org/1999/xlink" x="0px" y="0px"
	 viewBox="0 0 330 315" style="enable-background:new 0 0 330 315;" xml:space="preserve">
<style type="text/css">
	.st0{fill:#020203;}
	.st1{fill:#E52521;}
	.st2{fill:#E94748;}
	.st3{fill:#A71916;}
	.st4{fill:#FFFFFF;}
	.st5{fill:#B2B2B2;}
	.st6{fill:#1C1C1C;}
</style>
<g id="TTnB8T.tif_2_">
	<g>
		<path class="st6" d="M177.5,297.2c-10.5-0.3-22.4-3.7-33.8-8.9c-48.9-22.6-84.8-58.4-107.9-107c-4.6-9.8-8.1-20-9.4-30.8
			c-1.4-11.8,0.4-22.4,10.1-30.7c4.6-4,8.7-8.6,13.1-12.9c8.3-8.1,16.2-8.2,24.4-0.1c8.2,8,16.3,16.2,24.4,24.3
			c4.3,4.3,7.3,9.2,5.7,15.7c-0.9,3.6-3.2,6.4-5.7,9c-4.7,4.8-9.5,9.5-14.3,14.2c-2.1,2-2.5,4-1.3,6.8c5,11.1,12.3,20.5,20.4,29.4
			c12.5,13.8,26.3,26,43.2,34.2c3,1.5,5,1,7.2-1.3c4.8-5.1,9.8-10,14.8-14.9c7.7-7.3,15.4-7.3,23.2-0.1c0.4,0.3,0.7,0.7,1,1
			c7.9,7.9,15.8,15.8,23.7,23.8c8.4,8.5,8.4,16.5-0.2,25.1c-4.6,4.6-9.2,9.2-13.7,13.9C195.9,294.6,189.4,297.3,177.5,297.2z"/>
		<path class="st6" d="M305.1,105.4c-0.2,45-32.6,82-76,87.7c-19,2.5-37-0.8-53.8-10.1c-2-1.1-3.3-1-5.2,0.3
			c-10,6.9-21.1,9.8-33.2,8.7c-1.8-0.2-3.5-0.5-4.1-2.6c-0.6-2.1,0.8-3.2,2.4-4.1c7.3-4.1,12.2-10.4,16.1-17.6c1-1.9,0.7-3-0.6-4.6
			c-11.6-13.5-18.4-29.2-20.6-46.8c-5.3-42.7,22-83.2,63.9-94.9c49.4-13.7,100.7,18.5,109.6,68.9
			C304.7,95.6,305.3,100.9,305.1,105.4z M284.9,106.1c0-37.3-30.3-67.6-67.9-67.6c-36.6,0-67.1,30.5-67.2,67.2
			c-0.1,37.4,30.4,68,67.6,67.9C254.5,173.5,284.9,143.2,284.9,106.1z"/>
		<path class="st6" d="M213,91.2c3.6,0,7.2,0,10.8,0c3.7,0,5.1,1.6,4.5,5.4c-0.9,6-2,11.9-3,17.8c-1.1,6.4-2.2,12.8-3.3,19.2
			c-0.2,1.3-0.1,2.5,0.1,3.8c0.5,2.3,1.8,3.3,4.2,3c2.1-0.2,3.9-1.1,5.7-2c1-0.5,2.3-1.4,3.2-0.3c0.9,1.1,0.1,2.5-0.7,3.5
			c-3.3,3.9-7.5,6.5-12.6,7.1c-3.4,0.4-6.8,0.3-10.2-0.1c-6.4-0.7-11.1-7.1-10.1-13.3c1.8-10.7,3.6-21.5,5.4-32.2
			c0.7-4.1-0.5-5.6-4.5-6.5c-1.9-0.4-5,0-4.6-3.2c0.3-3.1,3.2-2.2,5.2-2.3C206.4,91.1,209.7,91.2,213,91.2z"/>
		<path class="st6" d="M219.8,63.1c6.2,0,11.1,5,11.1,11.2c0,6.1-5.3,11.5-11.1,11.4c-6.2-0.1-11.4-5.4-11.3-11.5
			C208.6,68,213.6,63.1,219.8,63.1z"/>
	</g>
</g>
</svg>
