<?xml version="1.0" encoding="utf-8"?>
<!-- Generator: Adobe Illustrator 22.1.0, SVG Export Plug-In . SVG Version: 6.00 Build 0)  -->
<svg version="1.1" id="Capa_1" xmlns="http://www.w3.org/2000/svg" xmlns:xlink="http://www.w3.org/1999/xlink" x="0px" y="0px"
	 viewBox="0 0 338.4 419.1" style="enable-background:new 0 0 338.4 419.1;" xml:space="preserve">
<style type="text/css">
	.st0{fill:#FB4343;}
	.st1{fill:#FFFFFF;}
</style>
<g>
	<g>
		<path class="st0" d="M0,69.2v227.7c0,25.6,14.1,49.1,36.7,61.1l100,53.2c20.3,10.8,44.6,10.8,64.9,0l100-53.2
			c22.6-12,36.7-35.5,36.7-61.1V69.2c0-38.2-31-69.2-69.2-69.2H69.2C31,0,0,31,0,69.2z"/>
	</g>
	<g>
		<path class="st1" d="M84.6,287.4c1.1,0.6,3.1,1.1,4.7,1.1c2.6,0,3.9-1.3,3.9-3.2c0-2.1-1.3-3.1-3.6-4.6c-3.9-2.3-5.3-5.3-5.3-7.9
			c0-4.5,3-8.3,8.9-8.3c1.9,0,3.6,0.5,4.4,1l-0.9,4.7c-0.8-0.5-2-1-3.6-1c-2.3,0-3.5,1.4-3.5,2.9c0,1.7,0.8,2.6,3.9,4.4
			c3.8,2.3,5.1,5.1,5.1,8.1c0,5.2-3.8,8.6-9.3,8.6c-2.3,0-4.4-0.6-5.4-1.1L84.6,287.4z"/>
		<path class="st1" d="M113.6,280.6h-6.4v7.6h7.3v4.8h-12.7v-28.3H114v4.8h-6.8v6.5h6.4V280.6z"/>
		<path class="st1" d="M118.3,265.2c1.7-0.3,3.9-0.5,6-0.5c3,0,5.7,0.4,7.5,2.1c1.7,1.6,2.3,3.4,2.3,5.9c0,3-1.5,5.7-4.4,7v0.1
			c1.9,0.8,2.9,2.6,3.4,5.6c0.5,3.1,1.3,6.6,1.8,7.7h-5.7c-0.4-0.8-1-3.6-1.4-6.8c-0.5-3.5-1.4-4.5-3.2-4.5h-0.8V293h-5.5V265.2z
			 M123.7,277.5h1c2.4,0,3.7-1.9,3.7-4.4c0-2.4-1-4.1-3.4-4.2c-0.5,0-1,0-1.3,0.2V277.5z"/>
		<path class="st1" d="M141.9,293l-6.3-28.3h6.1l2,12.2c0.5,3.1,1,6.5,1.4,9.8h0.1c0.4-3.4,0.8-6.8,1.3-9.9l1.9-12.1h6l-6.5,28.3
			H141.9z"/>
		<path class="st1" d="M162.4,264.7V293h-5.5v-28.3H162.4z"/>
		<path class="st1" d="M180.9,292.6c-0.8,0.4-2.3,0.7-4.2,0.7c-7.3,0-10.7-5.9-10.7-14c0-10.7,5.9-14.8,11.4-14.8
			c1.9,0,3.3,0.4,3.8,0.8l-0.9,4.6c-0.6-0.3-1.3-0.5-2.6-0.5c-3.1,0-5.9,2.7-5.9,9.7c0,6.8,2.6,9.4,5.9,9.4c0.9,0,2-0.2,2.6-0.4
			L180.9,292.6z"/>
		<path class="st1" d="M189.4,264.7V293h-5.5v-28.3H189.4z"/>
		<path class="st1" d="M201.8,293.3c-6.4,0-8.9-6.8-8.9-14.5c0-7.7,3.1-14.4,9.4-14.4c6.8,0,8.7,7.5,8.7,14
			C211,289,207.2,293.3,201.8,293.3L201.8,293.3z M202,288.6c2.3,0,3.2-4.2,3.2-9.9c0-5-0.8-9.4-3.3-9.4c-2.4,0-3.4,4.4-3.4,9.6
			C198.5,284.4,199.6,288.6,202,288.6L202,288.6z"/>
		<path class="st1" d="M221.1,265.2c1.4-0.3,3.4-0.5,5.6-0.5c3.6,0,6,0.8,7.8,2.5c2.4,2.2,3.7,5.9,3.7,11.4c0,5.7-1.5,9.8-3.9,12
			c-1.9,1.8-4.7,2.7-8.6,2.7c-1.8,0-3.5-0.2-4.6-0.3V265.2z M226.6,288.6c0.3,0.1,0.7,0.1,1,0.1c2.6,0,4.9-2.6,4.9-10.4
			c0-5.8-1.5-9.3-4.8-9.3c-0.4,0-0.8,0-1.1,0.1V288.6z"/>
		<path class="st1" d="M253.6,280.6h-6.4v7.6h7.3v4.8h-12.7v-28.3H254v4.8h-6.8v6.5h6.4V280.6z"/>
		<path class="st1" d="M99.5,331.1c-0.8,0.4-2.3,0.7-4.2,0.7c-7.3,0-10.7-5.9-10.7-14c0-10.7,5.9-14.8,11.4-14.8
			c1.9,0,3.3,0.4,3.8,0.8l-0.9,4.6c-0.6-0.3-1.3-0.5-2.6-0.5c-3.1,0-5.9,2.7-5.9,9.7c0,6.8,2.6,9.4,5.9,9.4c0.9,0,2-0.2,2.6-0.4
			L99.5,331.1z"/>
		<path class="st1" d="M114.4,319.1H108v7.6h7.3v4.8h-12.7v-28.3h12.3v4.8H108v6.5h6.4V319.1z"/>
		<path class="st1" d="M119,303.7c1.7-0.3,3.9-0.5,6-0.5c3,0,5.7,0.4,7.5,2.1c1.7,1.6,2.3,3.4,2.3,5.9c0,3-1.5,5.7-4.4,7v0.1
			c1.9,0.8,2.9,2.6,3.4,5.6c0.5,3.1,1.3,6.6,1.8,7.7H130c-0.4-0.8-1-3.6-1.4-6.8c-0.5-3.5-1.4-4.5-3.2-4.5h-0.8v11.3H119V303.7z
			 M124.5,316h1c2.4,0,3.7-1.9,3.7-4.4c0-2.4-1-4.1-3.4-4.2c-0.5,0-1,0-1.3,0.2V316z"/>
		<path class="st1" d="M138.7,303.7c1.7-0.3,3.9-0.5,6-0.5c3,0,5.7,0.4,7.5,2.1c1.7,1.6,2.3,3.4,2.3,5.9c0,3-1.5,5.7-4.4,7v0.1
			c1.9,0.8,2.9,2.6,3.4,5.6c0.5,3.1,1.3,6.6,1.8,7.7h-5.7c-0.4-0.8-1-3.6-1.4-6.8c-0.5-3.5-1.4-4.5-3.2-4.5h-0.8v11.3h-5.5V303.7z
			 M144.2,316h1c2.4,0,3.7-1.9,3.7-4.4c0-2.4-1-4.1-3.4-4.2c-0.5,0-1,0-1.3,0.2V316z"/>
		<path class="st1" d="M162.9,325l-1.3,6.5h-5.3l6.1-28.3h6.6l5.5,28.3h-5.4L168,325H162.9z M167.5,320.8l-0.9-5.9
			c-0.3-1.7-0.7-4.6-0.9-6.4h-0.1c-0.3,1.9-0.7,4.8-1,6.4l-1,5.9H167.5z"/>
		<path class="st1" d="M181.7,303.2h5.5v19.2c0,8.1-3.9,9.4-7.9,9.4c-1.1,0-2.2-0.2-2.8-0.4l0.5-4.6c0.5,0.1,1.1,0.2,1.8,0.2
			c1.6,0,2.9-0.7,2.9-4.3V303.2z"/>
		<path class="st1" d="M203.6,319.1h-6.4v7.6h7.3v4.8h-12.7v-28.3H204v4.8h-6.8v6.5h6.4V319.1z"/>
		<path class="st1" d="M208.2,303.7c1.7-0.3,3.9-0.5,6-0.5c3,0,5.7,0.4,7.5,2.1c1.7,1.6,2.3,3.4,2.3,5.9c0,3-1.5,5.7-4.4,7v0.1
			c1.9,0.8,2.9,2.6,3.4,5.6c0.5,3.1,1.3,6.6,1.8,7.7h-5.7c-0.4-0.8-1-3.6-1.4-6.8c-0.5-3.5-1.4-4.5-3.2-4.5h-0.8v11.3h-5.5V303.7z
			 M213.7,316h1c2.4,0,3.7-1.9,3.7-4.4c0-2.4-1-4.1-3.4-4.2c-0.5,0-1,0-1.3,0.2V316z"/>
		<path class="st1" d="M233.4,303.2v28.3h-5.5v-28.3H233.4z M237,297l-5.1,4.7H228l3.4-4.7H237z"/>
		<path class="st1" d="M242.8,325l-1.3,6.5h-5.3l6.1-28.3h6.6l5.5,28.3H249l-1.2-6.5H242.8z M247.4,320.8l-0.9-5.9
			c-0.3-1.7-0.7-4.6-0.9-6.4h-0.1c-0.3,1.9-0.7,4.8-1,6.4l-1,5.9H247.4z"/>
	</g>
	<g>
		<g>
			<g>
				<path class="st1" d="M178.1,152.9c-0.4,0.3-0.6,0.5-0.9,0.7c-11.1,10.3-22.1,20.5-33.2,30.8c-16.4,15.2-32.7,30.4-49.1,45.6
					c-0.4,0.4-0.8,0.8-1,1.3c-1,1.7,0.3,3.8,2.2,4c0.1,0,0.2,0,0.3,0c7,1.3,14,2.6,20.9,4c2.1,0.4,3.9,0.2,5.4-1.5
					c1.4-1.5,3-2.8,4.5-4.2c3.1-2.9,3.2-3.6,1.6-7.3c-1.8-4.1-1.3-4.7,1.6-7.9c3.4-3.7,6.7-4.6,11.1-1.9c1.8,1.1,3.5,0.7,5.1-0.8
					c1.9-1.8,3.8-3.5,5.7-5.3c1.5-1.4,1.9-3.1,1-5c-0.4-0.9-0.7-1.8-1.2-2.6c-1-2.1-0.6-3.9,1.1-5.4c1.6-1.5,3.4-1.6,5.3-0.5
					c0.8,0.5,1.7,0.9,2.6,1.3c1.9,1,3.6,0.8,5.1-0.6c2.8-2.6,5.5-5.2,8.3-7.7c1.6-1.4,1.9-3.1,1.2-5c-0.9-2.6-1.7-5.2-2.6-7.8
					c-1-2.6,0.3-4.2,2-5.8c1.6-1.5,3.3-1.8,5.3-0.9c2.5,1.1,5,2.3,7.6,3.1c1.2,0.4,2.9,0.6,3.8,0c2.4-1.6,4.4-3.8,6.9-5.9
					C190.2,164,183.6,159.2,178.1,152.9z"/>
			</g>
			<g>
				<path class="st1" d="M172.6,145.3c-1.5-3.5-2.9-6.7-4.3-10.1c-0.5,0.4-1,0.7-1.4,1.1c-8.1,7.5-16.1,15-24.2,22.5
					c-14.5,13.4-28.9,26.8-43.4,40.3c-3,2.7-6.4,5.1-7.5,9.4c-0.6,2.2-1.1,4.4-1.7,6.6c-0.4,1.4-0.3,2.9,1.2,3.4
					c1,0.3,2.6-0.1,3.3-0.7c9.7-8.8,19.2-17.8,28.8-26.7c12.8-11.9,25.7-23.8,38.5-35.8C165.5,151.8,169.1,148.5,172.6,145.3z"/>
			</g>
			<g>
				<path class="st1" d="M251.1,78.2c-21-17.1-51.9-13.9-69,7.1s-13.9,51.9,7.1,69s51.9,13.9,69-7.1
					C275.3,126.1,272.1,95.2,251.1,78.2z M223.1,115.8c-6.4-5.2-7.4-14.7-2.2-21.1c5.2-6.4,14.7-7.4,21.1-2.2
					c6.4,5.2,7.4,14.7,2.2,21.1C239,120,229.5,121,223.1,115.8z"/>
			</g>
		</g>
	</g>
</g>
<g>
	<path class="st1" d="M262.6,20.6H76c-32,0-58,26-58,58V291c0,21.5,11.8,41.1,30.8,51.2l93.3,49.6c8.3,4.4,17.8,6.8,27.2,6.8
		c9.5,0,18.9-2.3,27.2-6.8l93.3-49.6c19-10.1,30.8-29.7,30.8-51.2V78.6C320.6,46.6,294.6,20.6,262.6,20.6z M313.6,291
		c0,18.9-10.4,36.2-27.1,45l-93.3,49.6c-7.3,3.9-15.6,6-23.9,6c-8.3,0-16.6-2.1-23.9-6L52,336C35.3,327.1,25,309.9,25,291V78.6
		c0-28.1,22.9-51,51-51h186.6c28.1,0,51,22.9,51,51V291z"/>
</g>
</svg>
