<?xml version="1.0" encoding="utf-8"?>
<!-- Generator: Adobe Illustrator 22.1.0, SVG Export Plug-In . SVG Version: 6.00 Build 0)  -->
<svg version="1.1" id="Capa_1" xmlns="http://www.w3.org/2000/svg" xmlns:xlink="http://www.w3.org/1999/xlink" x="0px" y="0px"
	 viewBox="0 0 338.4 419.1" style="enable-background:new 0 0 338.4 419.1;" xml:space="preserve">
<style type="text/css">
	.st0{fill:#FB4343;}
	.st1{fill:#FFFFFF;}
</style>
<g>
	<g>
		<path class="st0" d="M0,69.2v227.7c0,25.6,14.1,49.1,36.7,61.1l100,53.2c20.3,10.8,44.6,10.8,64.9,0l100-53.2
			c22.6-12,36.7-35.5,36.7-61.1V69.2c0-38.2-31-69.2-69.2-69.2H69.2C31,0,0,31,0,69.2z"/>
	</g>
	<g>
		<path class="st1" d="M68.7,286.5l-1.3,6.5h-5.3l6.1-28.3h6.6l5.5,28.3H75l-1.2-6.5H68.7z M73.3,282.3l-0.9-5.9
			c-0.3-1.7-0.7-4.6-0.9-6.4h-0.1c-0.3,1.9-0.7,4.8-1,6.4l-1,5.9H73.3z"/>
		<path class="st1" d="M82.8,287.4c1.1,0.6,3.1,1.1,4.7,1.1c2.6,0,3.9-1.3,3.9-3.2c0-2.1-1.3-3.1-3.6-4.6c-3.9-2.3-5.3-5.3-5.3-7.9
			c0-4.5,3-8.3,8.9-8.3c1.9,0,3.6,0.5,4.4,1l-0.9,4.7c-0.8-0.5-2-1-3.6-1c-2.3,0-3.5,1.4-3.5,2.9c0,1.7,0.8,2.6,3.9,4.4
			c3.8,2.3,5.1,5.1,5.1,8.1c0,5.2-3.8,8.6-9.3,8.6c-2.3,0-4.4-0.6-5.4-1.1L82.8,287.4z"/>
		<path class="st1" d="M105.5,264.7V293H100v-28.3H105.5z"/>
		<path class="st1" d="M109.7,287.4c1.1,0.6,3.1,1.1,4.7,1.1c2.6,0,3.9-1.3,3.9-3.2c0-2.1-1.3-3.1-3.6-4.6c-3.9-2.3-5.3-5.3-5.3-7.9
			c0-4.5,3-8.3,8.9-8.3c1.9,0,3.6,0.5,4.4,1l-0.9,4.7c-0.8-0.5-2-1-3.6-1c-2.3,0-3.5,1.4-3.5,2.9c0,1.7,0.8,2.6,3.9,4.4
			c3.8,2.3,5.1,5.1,5.1,8.1c0,5.2-3.8,8.6-9.3,8.6c-2.3,0-4.4-0.6-5.4-1.1L109.7,287.4z"/>
		<path class="st1" d="M130,269.8h-5v-5.1h15.5v5.1h-5V293H130V269.8z"/>
		<path class="st1" d="M155.3,280.6h-6.4v7.6h7.3v4.8h-12.7v-28.3h12.3v4.8h-6.8v6.5h6.4V280.6z"/>
		<path class="st1" d="M159.9,293v-28.3h5l4.4,11.1c0.9,2.1,2.2,5.8,3,8.2h0.1c-0.2-2.9-0.5-7.9-0.5-13.1v-6.2h4.8V293h-5l-4.3-10.8
			c-1-2.3-2.2-6-2.9-8.5h-0.1c0.2,2.9,0.4,7.2,0.4,12.9v6.4H159.9z"/>
		<path class="st1" d="M195.1,292.6c-0.8,0.4-2.3,0.7-4.2,0.7c-7.3,0-10.7-5.9-10.7-14c0-10.7,5.9-14.8,11.4-14.8
			c1.9,0,3.3,0.4,3.8,0.8l-0.9,4.6c-0.6-0.3-1.3-0.5-2.6-0.5c-3.1,0-5.9,2.7-5.9,9.7c0,6.8,2.6,9.4,5.9,9.4c0.9,0,2-0.2,2.6-0.4
			L195.1,292.6z"/>
		<path class="st1" d="M203.6,264.7V293h-5.5v-28.3H203.6z"/>
		<path class="st1" d="M213,286.5l-1.3,6.5h-5.3l6.1-28.3h6.6l5.5,28.3h-5.4l-1.2-6.5H213z M217.6,282.3l-0.9-5.9
			c-0.3-1.7-0.7-4.6-0.9-6.4h-0.1c-0.3,1.9-0.7,4.8-1,6.4l-1,5.9H217.6z"/>
		<path class="st1" d="M246.3,280.6h-6.4v7.6h7.3v4.8h-12.7v-28.3h12.3v4.8h-6.8v6.5h6.4V280.6z"/>
		<path class="st1" d="M250.9,293v-28.3h5l4.4,11.1c0.9,2.1,2.2,5.8,3,8.2h0.1c-0.2-2.9-0.5-7.9-0.5-13.1v-6.2h4.8V293h-5l-4.3-10.8
			c-1-2.3-2.2-6-2.9-8.5h-0.1c0.2,2.9,0.4,7.2,0.4,12.9v6.4H250.9z"/>
		<path class="st1" d="M136.1,331.5l-6.3-28.3h6.1l2,12.2c0.5,3.1,1,6.5,1.4,9.8h0.1c0.4-3.4,0.8-6.8,1.3-9.9l1.9-12.1h6l-6.5,28.3
			H136.1z"/>
		<path class="st1" d="M156.6,303.2v28.3h-5.5v-28.3H156.6z"/>
		<path class="st1" d="M166,325l-1.3,6.5h-5.3l6.1-28.3h6.6l5.5,28.3h-5.4l-1.2-6.5H166z M170.6,320.8l-0.9-5.9
			c-0.3-1.7-0.7-4.6-0.9-6.4h-0.1c-0.3,1.9-0.7,4.8-1,6.4l-1,5.9H170.6z"/>
		<path class="st1" d="M184.7,303.2h5.5v19.2c0,8.1-3.9,9.4-7.9,9.4c-1.1,0-2.2-0.2-2.8-0.4l0.5-4.6c0.5,0.1,1.1,0.2,1.8,0.2
			c1.6,0,2.9-0.7,2.9-4.3V303.2z"/>
		<path class="st1" d="M206.7,319.1h-6.4v7.6h7.3v4.8h-12.7v-28.3H207v4.8h-6.8v6.5h6.4V319.1z"/>
	</g>
	<g>
		<g id="_x39_ZFtZm.tif_1_">
			<g>
				<g>
					<path class="st1" d="M291.7,111.1c-2.7,7.9-8.4,13.5-14.9,18.5c-11.4,8.8-24.2,14.9-37.7,19.6c-39.7,13.6-79.3,27.6-119.7,39
						c-6.7,1.9-13.5,3.5-20.4,4.9c-9.8,2-19.8,3.2-29.8,3.5c-1.1,0-2.3,0-3.4,0c-1.9,0-3.9-0.3-5.7-1c-7.5-2.8-9.2-9.6-3.8-17
						c0.4-0.6,0.9-1.2,1.3-1.7c3.1-3.6,3.1-3.6,0.9-7.7c-3.9-7.4-7.9-14.7-11.8-22.1c0,0,0,0,0,0c-1.3-2.4-0.6-5.4,1.8-6.8
						c3.1-1.7,6.2-3.5,9.4-4.9c1.5-0.6,3.9,0,5.5,0.8c10.2,4.9,20.3,10,30.4,15.2c3.6,1.9,6,1.2,10.5-1.2
						c13.1-6.9,12.2-6.5,21.4-10.7c0.1,0,2.5-1,2.5-1c1.2-0.4,1.4-2,0.3-2.6c0,0,0,0,0,0c-18.6-11.6-37.2-23.2-55.8-34.8
						c-0.7-0.5-1.5-0.9-2.2-1.5c-2.9-2.1-3-5.4,0-7.4c5.2-3.3,10.5-6.5,15.8-9.6c3.2-1.9,6.8-1.6,10.3-0.7
						c23.3,5.8,46.5,11.7,69.8,17.5c8.4,2.1,16.8,4.1,25.2,6.3c1.9,0.5,3.5,0.3,5.3-0.5c8.5-3.8,16.9-8,25.7-10.9
						c15.7-5,31.8-6.8,48.3-4.3c0.6,0.1,1.1,0.2,1.6,0.3c0.3,0.1,1.5,0.5,0.9,0.7c-0.5,0.1-1,0.3-1.6,0.4c-8,1.9-15.9,4.1-23.7,6.9
						c-0.1,0-0.2,0.1-0.3,0.1c0,0-0.1,0-0.1,0c-2.6,0.9-4.1,3.7-3.2,6.3c0.2,0.5,0.4,0.9,0.7,1.3c1.3,1.8,3,1.5,4.8,0.9
						c6.6-1.9,16.3-4.2,22.3-5.7c6.1-1.5,7.7-2.4,13.9-3.4c1.9-0.3,3.3,0.5,4.2,2.1l0,0C292.6,103.3,293,107.4,291.7,111.1z"/>
				</g>
				<g>
					<path class="st1" d="M239.4,158.8c0.7,4.5,1.3,8.5,1.8,12.5c1.6,11.3,3.2,22.7,4.8,34c0.9,6.1-0.8,8.8-6.6,10.7
						c-4,1.3-8.1,2.6-12.1,3.9c-3,0.9-5.5,0.3-7.6-2.2c-11-13.2-22-26.4-33-39.6c-0.3-0.3-0.4-0.6-1-1.5
						C203.7,170.7,221.3,164.8,239.4,158.8z"/>
				</g>
			</g>
		</g>
	</g>
</g>
<g>
	<path class="st1" d="M262.4,20.6H75.7c-32,0-58,26-58,58V291c0,21.5,11.8,41.1,30.8,51.2l93.3,49.6c8.3,4.4,17.8,6.8,27.2,6.8
		c9.5,0,18.9-2.3,27.2-6.8l93.3-49.6c19-10.1,30.8-29.7,30.8-51.2V78.6C320.4,46.6,294.4,20.6,262.4,20.6z M313.4,291
		c0,18.9-10.4,36.2-27.1,45L193,385.6c-7.3,3.9-15.6,6-23.9,6c-8.3,0-16.6-2.1-23.9-6L51.8,336c-16.7-8.9-27.1-26.1-27.1-45V78.6
		c0-28.1,22.9-51,51-51h186.6c28.1,0,51,22.9,51,51V291z"/>
</g>
</svg>
