<?xml version="1.0" encoding="utf-8"?>
<!-- Generator: Adobe Illustrator 22.1.0, SVG Export Plug-In . SVG Version: 6.00 Build 0)  -->
<svg version="1.1" id="Capa_1" xmlns="http://www.w3.org/2000/svg" xmlns:xlink="http://www.w3.org/1999/xlink" x="0px" y="0px"
	 viewBox="0 0 338.4 419.1" style="enable-background:new 0 0 338.4 419.1;" xml:space="preserve">
<style type="text/css">
	.st0{fill:#FB4343;}
	.st1{fill:#FFFFFF;}
</style>
<g>
	<g>
		<g>
			<path class="st0" d="M0,69.2v227.7c0,25.6,14.1,49.1,36.7,61.1l100,53.2c20.3,10.8,44.6,10.8,64.9,0l100-53.2
				c22.6-12,36.7-35.5,36.7-61.1V69.2c0-38.2-31-69.2-69.2-69.2H69.2C31,0,0,31,0,69.2z"/>
		</g>
		<g>
			<path class="st1" d="M84.6,287.4c1.1,0.6,3.1,1.1,4.7,1.1c2.6,0,3.9-1.3,3.9-3.2c0-2.1-1.3-3.1-3.6-4.6c-3.9-2.3-5.3-5.3-5.3-7.9
				c0-4.5,3-8.3,8.9-8.3c1.9,0,3.6,0.5,4.4,1l-0.9,4.7c-0.8-0.5-2-1-3.6-1c-2.3,0-3.5,1.4-3.5,2.9c0,1.7,0.8,2.6,3.9,4.4
				c3.8,2.3,5.1,5.1,5.1,8.1c0,5.2-3.8,8.6-9.3,8.6c-2.3,0-4.4-0.6-5.4-1.1L84.6,287.4z"/>
			<path class="st1" d="M113.6,280.6h-6.4v7.6h7.3v4.8h-12.7v-28.3H114v4.8h-6.8v6.5h6.4V280.6z"/>
			<path class="st1" d="M118.3,265.2c1.7-0.3,3.9-0.5,6-0.5c3,0,5.7,0.4,7.5,2.1c1.7,1.6,2.3,3.4,2.3,5.9c0,3-1.5,5.7-4.4,7v0.1
				c1.9,0.8,2.9,2.6,3.4,5.6c0.5,3.1,1.3,6.6,1.8,7.7h-5.7c-0.4-0.8-1-3.6-1.4-6.8c-0.5-3.5-1.4-4.5-3.2-4.5h-0.8V293h-5.5V265.2z
				 M123.7,277.5h1c2.4,0,3.7-1.9,3.7-4.4c0-2.4-1-4.1-3.4-4.2c-0.5,0-1,0-1.3,0.2V277.5z"/>
			<path class="st1" d="M141.9,293l-6.3-28.3h6.1l2,12.2c0.5,3.1,1,6.5,1.4,9.8h0.1c0.4-3.4,0.8-6.8,1.3-9.9l1.9-12.1h6l-6.5,28.3
				H141.9z"/>
			<path class="st1" d="M162.4,264.7V293h-5.5v-28.3H162.4z"/>
			<path class="st1" d="M180.9,292.6c-0.8,0.4-2.3,0.7-4.2,0.7c-7.3,0-10.7-5.9-10.7-14c0-10.7,5.9-14.8,11.4-14.8
				c1.9,0,3.3,0.4,3.8,0.8l-0.9,4.6c-0.6-0.3-1.3-0.5-2.6-0.5c-3.1,0-5.9,2.7-5.9,9.7c0,6.8,2.6,9.4,5.9,9.4c0.9,0,2-0.2,2.6-0.4
				L180.9,292.6z"/>
			<path class="st1" d="M189.4,264.7V293h-5.5v-28.3H189.4z"/>
			<path class="st1" d="M201.8,293.3c-6.4,0-8.9-6.8-8.9-14.5c0-7.7,3.1-14.4,9.4-14.4c6.8,0,8.7,7.5,8.7,14
				C211,289,207.2,293.3,201.8,293.3L201.8,293.3z M202,288.6c2.3,0,3.2-4.2,3.2-9.9c0-5-0.8-9.4-3.3-9.4c-2.4,0-3.4,4.4-3.4,9.6
				C198.5,284.4,199.6,288.6,202,288.6L202,288.6z"/>
			<path class="st1" d="M221.1,265.2c1.4-0.3,3.4-0.5,5.6-0.5c3.6,0,6,0.8,7.8,2.5c2.4,2.2,3.7,5.9,3.7,11.4c0,5.7-1.5,9.8-3.9,12
				c-1.9,1.8-4.7,2.7-8.6,2.7c-1.8,0-3.5-0.2-4.6-0.3V265.2z M226.6,288.6c0.3,0.1,0.7,0.1,1,0.1c2.6,0,4.9-2.6,4.9-10.4
				c0-5.8-1.5-9.3-4.8-9.3c-0.4,0-0.8,0-1.1,0.1V288.6z"/>
			<path class="st1" d="M253.6,280.6h-6.4v7.6h7.3v4.8h-12.7v-28.3H254v4.8h-6.8v6.5h6.4V280.6z"/>
			<path class="st1" d="M98.4,303.7c1.6-0.3,3.6-0.5,5.7-0.5c3.3,0,5.9,0.5,7.7,2.2c1.7,1.5,2.4,3.8,2.4,6.2c0,3.1-0.9,5.2-2.4,6.8
				c-1.8,1.9-4.6,2.7-6.9,2.7c-0.4,0-0.7,0-1.1,0v10.5h-5.5V303.7z M103.9,316.5c0.3,0,0.6,0,0.9,0c2.8,0,4-2,4-4.6
				c0-2.5-1-4.4-3.6-4.4c-0.5,0-1,0.1-1.3,0.2V316.5z"/>
			<path class="st1" d="M117.5,303.2h5.5v23.6h7.2v4.7h-12.7V303.2z"/>
			<path class="st1" d="M139.9,331.8c-6.4,0-8.9-6.8-8.9-14.6c0-7.7,3.1-14.4,9.4-14.4c6.8,0,8.7,7.5,8.7,14
				C149,327.5,145.3,331.8,139.9,331.8L139.9,331.8z M140.1,327.1c2.3,0,3.2-4.2,3.2-9.9c0-5-0.8-9.4-3.3-9.4
				c-2.4,0-3.4,4.4-3.4,9.6C136.6,322.9,137.6,327.1,140.1,327.1L140.1,327.1z"/>
			<path class="st1" d="M169.8,321.6c-0.2-2.7-0.3-6.3-0.3-9.4h-0.1c-0.5,3-1.3,6.5-1.8,8.7l-2.5,10.1h-3.9l-2.3-9.9
				c-0.5-2.3-1.3-5.8-1.8-8.8h-0.1c-0.1,3.1-0.3,6.6-0.4,9.4l-0.5,9.8h-4.7l2-28.3h5.8l2.3,10.2c0.8,3.6,1.5,6.7,2,9.9h0.1
				c0.4-3.1,1-6.3,1.8-9.9l2.3-10.2h5.8l1.7,28.3h-4.9L169.8,321.6z"/>
			<path class="st1" d="M191.1,319.1h-6.4v7.6h7.3v4.8h-12.7v-28.3h12.3v4.8h-6.8v6.5h6.4V319.1z"/>
			<path class="st1" d="M195.7,303.7c1.7-0.3,3.9-0.5,6-0.5c3,0,5.7,0.4,7.5,2.1c1.7,1.6,2.3,3.4,2.3,5.9c0,3-1.5,5.7-4.4,7v0.1
				c1.9,0.8,2.9,2.6,3.4,5.6c0.5,3.1,1.3,6.6,1.8,7.7h-5.7c-0.4-0.8-1-3.6-1.4-6.8c-0.5-3.5-1.4-4.5-3.2-4.5h-0.8v11.3h-5.5V303.7z
				 M201.2,316h1c2.4,0,3.7-1.9,3.7-4.4c0-2.4-1-4.1-3.4-4.2c-0.5,0-1,0-1.3,0.2V316z"/>
			<path class="st1" d="M220.9,303.2v28.3h-5.5v-28.3H220.9z M224.6,297l-5.1,4.7h-3.9l3.4-4.7H224.6z"/>
			<path class="st1" d="M230.3,325l-1.3,6.5h-5.3l6.1-28.3h6.6l5.5,28.3h-5.4l-1.2-6.5H230.3z M234.9,320.8l-0.9-5.9
				c-0.3-1.7-0.7-4.6-0.9-6.4h-0.1c-0.3,1.9-0.7,4.8-1,6.4l-1,5.9H234.9z"/>
		</g>
		<g>
			<g id="WIIUEo.tif_1_">
				<g>
					<g>
						<path class="st1" d="M214,162.5c-1.7-0.5-3.4-1.2-5.2-1.6c-1.4-0.4-1.8-1.2-1.8-2.5c0-2.9,0-5.8-0.2-8.7
							c-0.6-8.1-7.2-11.2-13.4-11.9c-3.4-0.3-6.8-0.1-10.2-0.1c-1,0-1.8,0.2-2.2,1.3c-3.9,9.2-11.2,13.4-21,13.4
							c-8.4,0-16.9,0.3-25.3-0.2c-8.7-0.5-14.8-4.9-18.2-12.7c-0.8-1.7-1.6-2.2-3.4-2.2c-4.9,0.1-9.9-0.1-14.8,0
							c-1.9,0-2.5-0.7-2.5-2.6c0.1-8.3,0.1-16.6,0-24.9c0-1.9,0.6-2.5,2.5-2.5c5,0.1,10,0,15,0.1c1.5,0,2.3-0.5,2.9-1.9
							c3.5-8.6,10.8-13.4,20.1-13.4c8.3,0,16.6,0,24.9,0c9.3,0,16.7,5.2,20,13.8c0.6,1.6,1.4,1.9,2.9,1.9c5.4,0.1,10.9-0.3,16.3,0.7
							c18.7,3.7,29.9,15.2,34.9,33.1c1.8,6.2,1.9,12.6,1.7,19c0,1.6,0.1,3,1.2,4.2c0.8,0.9,1,2.1,1,3.3c0,2,0,3.9,0,5.9
							c-0.1,3.5-2.4,5.9-5.9,5.9c-7.4,0.1-14.8,0.1-22.2,0c-3.1,0-5.3-1.9-5.7-4.9c-0.4-3.2-0.7-6.4,0.5-9.5
							c0.7-1.7,1.7-2.6,3.6-2.5c1.6,0,3.2-0.2,4.8-0.4C214,162.8,214,162.6,214,162.5z"/>
					</g>
					<g>
						<path class="st1" d="M221.4,245c-14.3,0.2-24.6-13.2-21.2-27.3c1.3-5.5,4.2-10.2,7.2-14.8c4.7-7.2,9.2-14.5,12.2-22.6
							c0.3-0.7,0.6-1.6,1.6-1.6c0.9,0,1.2,0.7,1.5,1.4c3.4,9.8,9.7,17.9,15,26.5c3.9,6.3,6.1,13.1,4.8,20.5
							C240.7,237.8,232.2,244.9,221.4,245z M221.3,238.6c2.4,0,5.3-0.8,7.1-1.9c0.9-0.6,1.8-1.3,1.1-2.4c-0.6-1.1-1.6-0.7-2.5-0.3
							c-1.4,0.7-2.9,1.3-4.5,1.4c-5.6,0.4-10.1-2.7-11.8-8.3c-0.4-1.2-0.7-2.4-2.2-2.1c-1.8,0.4-1,1.8-0.8,2.9
							C208.9,233.8,214.9,238.5,221.3,238.6z"/>
					</g>
					<g>
						<path class="st1" d="M147.6,64.3c11.1,0,22.2,0,33.4,0c1.2,0,2.3,0.1,3.5,0.3c3.4,0.5,5.8,3.4,5.6,6.7
							c-0.2,3.5-2.8,6.2-6.3,6.2c-8.4,0.1-16.9,0.1-25.3,0c-2.2,0-3,0.6-2.8,2.8c0.2,2.3,0,4.6,0.1,7c0,1.4-0.5,2-1.9,2
							c-4.1,0-8.3,0-12.4,0c-1.4,0-2-0.6-2-2c0-2.5-0.1-4.9,0-7.4c0.1-1.8-0.6-2.4-2.4-2.4c-8.3,0.1-16.6,0.1-24.9,0
							c-4.8,0-7.9-3.9-6.7-8.2c0.7-2.7,2.6-4.4,5.4-4.7c4.9-0.6,9.9-0.2,14.8-0.3C133,64.2,140.3,64.3,147.6,64.3
							C147.6,64.3,147.6,64.3,147.6,64.3z"/>
					</g>
				</g>
			</g>
		</g>
	</g>
	<g>
		<path class="st1" d="M263.6,20.6H77c-32,0-58,26-58,58V291c0,21.5,11.8,41.1,30.8,51.2l93.3,49.6c8.3,4.4,17.8,6.8,27.2,6.8
			c9.5,0,18.9-2.3,27.2-6.8l93.3-49.6c19-10.1,30.8-29.7,30.8-51.2V78.6C321.6,46.6,295.6,20.6,263.6,20.6z M314.6,291
			c0,18.9-10.4,36.2-27.1,45l-93.3,49.6c-7.3,3.9-15.6,6-23.9,6c-8.3,0-16.6-2.1-23.9-6L53,336C36.3,327.1,26,309.9,26,291V78.6
			c0-28.1,22.9-51,51-51h186.6c28.1,0,51,22.9,51,51V291z"/>
	</g>
</g>
</svg>
