<?xml version="1.0" encoding="utf-8"?>
<!-- Generator: Adobe Illustrator 22.1.0, SVG Export Plug-In . SVG Version: 6.00 Build 0)  -->
<svg version="1.1" id="Capa_1" xmlns="http://www.w3.org/2000/svg" xmlns:xlink="http://www.w3.org/1999/xlink" x="0px" y="0px"
	 viewBox="0 0 338.4 419.1" style="enable-background:new 0 0 338.4 419.1;" xml:space="preserve">
<style type="text/css">
	.st0{fill:#FB4343;}
	.st1{fill:#FFFFFF;}
</style>
<g>
	<g>
		<g>
			<path class="st0" d="M0,69.2v227.7c0,25.6,14.1,49.1,36.7,61.1l100,53.2c20.3,10.8,44.6,10.8,64.9,0l100-53.2
				c22.6-12,36.7-35.5,36.7-61.1V69.2c0-38.2-31-69.2-69.2-69.2H69.2C31,0,0,31,0,69.2z"/>
		</g>
		<g>
			<path class="st1" d="M84.6,287.4c1.1,0.6,3.1,1.1,4.7,1.1c2.6,0,3.9-1.3,3.9-3.2c0-2.1-1.3-3.1-3.6-4.6c-3.9-2.3-5.3-5.3-5.3-7.9
				c0-4.5,3-8.3,8.9-8.3c1.9,0,3.6,0.5,4.4,1l-0.9,4.7c-0.8-0.5-2-1-3.6-1c-2.3,0-3.5,1.4-3.5,2.9c0,1.7,0.8,2.6,3.9,4.4
				c3.8,2.3,5.1,5.1,5.1,8.1c0,5.2-3.8,8.6-9.3,8.6c-2.3,0-4.4-0.6-5.4-1.1L84.6,287.4z"/>
			<path class="st1" d="M113.6,280.6h-6.4v7.6h7.3v4.8h-12.7v-28.3H114v4.8h-6.8v6.5h6.4V280.6z"/>
			<path class="st1" d="M118.3,265.2c1.7-0.3,3.9-0.5,6-0.5c3,0,5.7,0.4,7.5,2.1c1.7,1.6,2.3,3.4,2.3,5.9c0,3-1.5,5.7-4.4,7v0.1
				c1.9,0.8,2.9,2.6,3.4,5.6c0.5,3.1,1.3,6.6,1.8,7.7h-5.7c-0.4-0.8-1-3.6-1.4-6.8c-0.5-3.5-1.4-4.5-3.2-4.5h-0.8V293h-5.5V265.2z
				 M123.7,277.5h1c2.4,0,3.7-1.9,3.7-4.4c0-2.4-1-4.1-3.4-4.2c-0.5,0-1,0-1.3,0.2V277.5z"/>
			<path class="st1" d="M141.9,293l-6.3-28.3h6.1l2,12.2c0.5,3.1,1,6.5,1.4,9.8h0.1c0.4-3.4,0.8-6.8,1.3-9.9l1.9-12.1h6l-6.5,28.3
				H141.9z"/>
			<path class="st1" d="M162.4,264.7V293h-5.5v-28.3H162.4z"/>
			<path class="st1" d="M180.9,292.6c-0.8,0.4-2.3,0.7-4.2,0.7c-7.3,0-10.7-5.9-10.7-14c0-10.7,5.9-14.8,11.4-14.8
				c1.9,0,3.3,0.4,3.8,0.8l-0.9,4.6c-0.6-0.3-1.3-0.5-2.6-0.5c-3.1,0-5.9,2.7-5.9,9.7c0,6.8,2.6,9.4,5.9,9.4c0.9,0,2-0.2,2.6-0.4
				L180.9,292.6z"/>
			<path class="st1" d="M189.4,264.7V293h-5.5v-28.3H189.4z"/>
			<path class="st1" d="M201.8,293.3c-6.4,0-8.9-6.8-8.9-14.5c0-7.7,3.1-14.4,9.4-14.4c6.8,0,8.7,7.5,8.7,14
				C211,289,207.2,293.3,201.8,293.3L201.8,293.3z M202,288.6c2.3,0,3.2-4.2,3.2-9.9c0-5-0.8-9.4-3.3-9.4c-2.4,0-3.4,4.4-3.4,9.6
				C198.5,284.4,199.6,288.6,202,288.6L202,288.6z"/>
			<path class="st1" d="M221.1,265.2c1.4-0.3,3.4-0.5,5.6-0.5c3.6,0,6,0.8,7.8,2.5c2.4,2.2,3.7,5.9,3.7,11.4c0,5.7-1.5,9.8-3.9,12
				c-1.9,1.8-4.7,2.7-8.6,2.7c-1.8,0-3.5-0.2-4.6-0.3V265.2z M226.6,288.6c0.3,0.1,0.7,0.1,1,0.1c2.6,0,4.9-2.6,4.9-10.4
				c0-5.8-1.5-9.3-4.8-9.3c-0.4,0-0.8,0-1.1,0.1V288.6z"/>
			<path class="st1" d="M253.6,280.6h-6.4v7.6h7.3v4.8h-12.7v-28.3H254v4.8h-6.8v6.5h6.4V280.6z"/>
			<path class="st1" d="M83.7,319.1h-6.4v7.6h7.3v4.8H71.8v-28.3h12.3v4.8h-6.8v6.5h6.4V319.1z"/>
			<path class="st1" d="M88.3,303.2h5.5v23.6h7.2v4.7H88.3V303.2z"/>
			<path class="st1" d="M116.2,319.1h-6.4v7.6h7.3v4.8h-12.7v-28.3h12.3v4.8h-6.8v6.5h6.4V319.1z"/>
			<path class="st1" d="M134.3,331.1c-0.8,0.4-2.3,0.7-4.2,0.7c-7.3,0-10.7-5.9-10.7-14c0-10.7,5.9-14.8,11.4-14.8
				c1.9,0,3.3,0.4,3.8,0.8l-0.9,4.6c-0.6-0.3-1.3-0.5-2.6-0.5c-3.1,0-5.9,2.7-5.9,9.7c0,6.8,2.6,9.4,5.9,9.4c0.9,0,2-0.2,2.6-0.4
				L134.3,331.1z"/>
			<path class="st1" d="M141.4,308.3h-5v-5.1h15.5v5.1h-5v23.2h-5.5V308.3z"/>
			<path class="st1" d="M154.8,303.7c1.7-0.3,3.9-0.5,6-0.5c3,0,5.7,0.4,7.5,2.1c1.7,1.6,2.3,3.4,2.3,5.9c0,3-1.5,5.7-4.4,7v0.1
				c1.9,0.8,2.9,2.6,3.4,5.6c0.5,3.1,1.3,6.6,1.8,7.7h-5.7c-0.4-0.8-1-3.6-1.4-6.8c-0.5-3.5-1.4-4.5-3.2-4.5h-0.8v11.3h-5.5V303.7z
				 M160.3,316h1c2.4,0,3.7-1.9,3.7-4.4c0-2.4-1-4.1-3.4-4.2c-0.5,0-1,0-1.3,0.2V316z"/>
			<path class="st1" d="M180,303.2v28.3h-5.5v-28.3H180z"/>
			<path class="st1" d="M198.5,331.1c-0.8,0.4-2.3,0.7-4.2,0.7c-7.3,0-10.7-5.9-10.7-14c0-10.7,5.9-14.8,11.4-14.8
				c1.9,0,3.3,0.4,3.8,0.8l-0.9,4.6c-0.6-0.3-1.3-0.5-2.6-0.5c-3.1,0-5.9,2.7-5.9,9.7c0,6.8,2.6,9.4,5.9,9.4c0.9,0,2-0.2,2.6-0.4
				L198.5,331.1z"/>
			<path class="st1" d="M207,303.2v28.3h-5.5v-28.3H207z"/>
			<path class="st1" d="M211.9,303.7c1.4-0.3,3.4-0.5,5.6-0.5c3.6,0,6,0.8,7.8,2.5c2.4,2.2,3.7,5.9,3.7,11.4c0,5.7-1.5,9.8-3.9,12
				c-1.9,1.8-4.7,2.7-8.6,2.7c-1.8,0-3.5-0.2-4.6-0.3V303.7z M217.4,327.1c0.3,0.1,0.7,0.1,1,0.1c2.6,0,4.9-2.6,4.9-10.4
				c0-5.8-1.5-9.3-4.8-9.3c-0.4,0-0.8,0-1.1,0.1V327.1z"/>
			<path class="st1" d="M236.3,325l-1.3,6.5h-5.3l6.1-28.3h6.6l5.5,28.3h-5.4l-1.2-6.5H236.3z M240.9,320.8l-0.9-5.9
				c-0.3-1.7-0.7-4.6-0.9-6.4h-0.1c-0.3,1.9-0.7,4.8-1,6.4l-1,5.9H240.9z"/>
			<path class="st1" d="M251,303.7c1.4-0.3,3.4-0.5,5.6-0.5c3.6,0,6,0.8,7.8,2.5c2.4,2.2,3.7,5.9,3.7,11.4c0,5.7-1.5,9.8-3.9,12
				c-1.9,1.8-4.7,2.7-8.6,2.7c-1.8,0-3.5-0.2-4.6-0.3V303.7z M256.5,327.1c0.3,0.1,0.7,0.1,1,0.1c2.6,0,4.9-2.6,4.9-10.4
				c0-5.8-1.5-9.3-4.8-9.3c-0.4,0-0.8,0-1.1,0.1V327.1z"/>
		</g>
		<g>
			<g>
				<path class="st1" d="M208.3,114.2L208.3,114.2c0-2.5,0.1-5,0.3-7.5l0.3-26.6c0.1-7.4,3.3-14.4,10.7-14.4h0
					c7.4,0.1,11,7.3,10.9,14.6l-0.4,35c0.3,0.6,0.9,1,1.6,1c2.9,0,5.7,0.1,8.5,0.1c2.1,0,4.3,0.1,6.4,0.1c1.4,0,2.5,0.3,3.1,1.5
					c0.1,0.3,0.2,0.6,0.2,0.8l-0.4,40.4c0,0.1,0,0.2,0,0.3c-0.6,3.3-1,6.6-2,9.7c-6.3,20.4-20,32.7-40.8,37.5
					c-0.9,0.2-1.9,0.4-2.9,0.5c-0.8,0.1-1.4,0.8-1.5,1.5c-0.2,1.8-0.3,3.6-0.7,5.4c-1.1,6-3.5,11.4-8,15.7c-3.2,3.1-7,5-11.4,5.7
					c-0.2,0-0.4,0.1-0.5,0.2c-0.2,0.1-0.4,0.1-0.7,0.1l-65.1-0.7c-0.1,0-0.3,0-0.4,0c-0.8-0.2-1.7-0.4-2.5-0.6
					c-11.6-3.2-19.7-10.1-23.4-21.8c-0.3-1.1-0.5-2.2-0.8-3.3c0-0.1,0-0.3,0-0.4l0.7-63.5c0-0.2,0.1-0.5,0.2-0.7
					c0.2-0.3,0.3-0.7,0.5-1c1.1-2.4,3.6-3.7,6.6-3.5c2.8,0.2,5,1.8,5.7,4.3c0.3,1.1,0.4,2.3,0.4,3.4c-0.2,19.4-0.4,38.8-0.6,58.1
					c0,2.4,0.4,4.6,1.7,6.6c3.7,5.6,8.8,9.1,15.7,9.2c14.8,0.2,29.6,0.3,44.4,0.5c5.1,0.1,10.2,0.1,15.3,0.1c2.6,0,4.7-1.1,6.2-3.1
					c2.5-3.1,3.2-6.8,3.3-10.6c0-0.9-0.6-1.6-1.4-1.8c-0.2,0-0.5-0.1-0.7-0.1c-25.1-4.4-43.8-26.2-43.9-51.6
					c-0.1-11.2,0.2-22.4,0.2-33.6c0-2.6,1.1-4.3,3.4-5c2.2-0.6,4.5-1.1,6.7-1.2c2.7-0.1,5.4,0,8.2,0c1,0,1.8-0.8,1.8-1.7l0-0.1
					c0.1-8.4,0.2-16.9,0.3-25.3c0-0.1,0-0.3,0-0.4l-0.1-0.1c0,0,0,0,0.1-0.1l0.1-8.3c0.1-7.4,3.5-14,10.9-13.9h0
					c7.4,0.1,10.2,6.9,10.2,14.2L184.4,98c0,1.4,0,2.8,0,4.2l-0.1,12c0.1,0.9,0.8,1.6,1.7,1.6l20.6,0.1
					C207.5,115.9,208.2,115.1,208.3,114.2z"/>
			</g>
		</g>
	</g>
	<g>
		<path class="st1" d="M261.4,20.6H74.8c-32,0-58,26-58,58V291c0,21.5,11.8,41.1,30.8,51.2l93.3,49.6c8.3,4.4,17.8,6.8,27.2,6.8
			c9.5,0,18.9-2.3,27.2-6.8l93.3-49.6c19-10.1,30.8-29.7,30.8-51.2V78.6C319.4,46.6,293.4,20.6,261.4,20.6z M312.4,291
			c0,18.9-10.4,36.2-27.1,45L192,385.6c-7.3,3.9-15.6,6-23.9,6c-8.3,0-16.6-2.1-23.9-6L50.8,336c-16.7-8.9-27.1-26.1-27.1-45V78.6
			c0-28.1,22.9-51,51-51h186.6c28.1,0,51,22.9,51,51V291z"/>
	</g>
</g>
</svg>
