<?xml version="1.0" encoding="utf-8"?>
<!-- Generator: Adobe Illustrator 22.1.0, SVG Export Plug-In . SVG Version: 6.00 Build 0)  -->
<svg version="1.1" id="Capa_1" xmlns="http://www.w3.org/2000/svg" xmlns:xlink="http://www.w3.org/1999/xlink" x="0px" y="0px"
	 viewBox="0 0 338.4 419.1" style="enable-background:new 0 0 338.4 419.1;" xml:space="preserve">
<style type="text/css">
	.st0{fill:#FB4343;}
	.st1{fill:#FFFFFF;}
</style>
<g>
	<g>
		<g>
			<g>
				<path class="st0" d="M169.2,395.1c-8.9,0-17.7-2.2-25.6-6.4l-93.3-49.6c-17.8-9.5-28.9-27.9-28.9-48.1V78.6
					c0-30.1,24.5-54.5,54.5-54.5h186.6c30.1,0,54.5,24.5,54.5,54.5V291c0,20.2-11.1,38.7-28.9,48.1l-93.3,49.6
					C186.9,392.8,178.1,395.1,169.2,395.1z"/>
			</g>
			<g>
				<g>
					<path class="st0" d="M269.3,0H69.2C31,0,0,31,0,69.2v227.7c0,25.6,14.1,49.1,36.7,61.1l100,53.2c20.3,10.8,44.6,10.8,64.9,0
						l100-53.2c22.6-12,36.7-35.5,36.7-61.1V69.2C338.4,31,307.4,0,269.3,0z"/>
				</g>
				<g>
					<path class="st1" d="M262.5,20.6H75.9c-32,0-58,26-58,58V291c0,21.5,11.8,41.1,30.8,51.2l93.3,49.6c8.3,4.4,17.8,6.8,27.2,6.8
						c9.5,0,18.9-2.3,27.2-6.8l93.3-49.6c19-10.1,30.8-29.7,30.8-51.2V78.6C320.5,46.6,294.5,20.6,262.5,20.6z M313.5,291
						c0,18.9-10.4,36.2-27.1,45l-93.3,49.6c-7.3,3.9-15.6,6-23.9,6c-8.3,0-16.6-2.1-23.9-6L52,336c-16.7-8.9-27.1-26.1-27.1-45V78.6
						c0-28.1,22.9-51,51-51h186.6c28.1,0,51,22.9,51,51V291z"/>
				</g>
			</g>
		</g>
	</g>
	<g>
		<g>
			<path class="st1" d="M297.2,181c-1.6-1.9-2.6-4.4-2.6-7.1v-16.8c0-15.8-7.4-13.2-7.4-13.2s-73.3-7.1-86.1-7.6
				c-12.8-0.4-6.6-6.3-6.6-6.3l77.1-30.8c2.1-0.8,4.3-0.7,6.4,0.1c1.2,1.9,5.9,13.5-5.1,15.9c-11,2.4-6.4,24,12.2,19
				c18.6-5,10.6-17.1,10.6-17.1s-6.6-2.8-8,4.5c-1.4,7.3-7,5.6-8.8,2.8c-1.8-2.8-0.6-7.3,3.3-9.3s5-8.3,3.5-14.6c0,0,0,0,0,0
				c9-1.3,8.7-14.6,3.2-19.7c-5.3-5-10.8-0.9-13.2,1.5c-1.1,1.1-2.4,1.8-3.8,2.2l-113,32.9c-6,1.7-11.8-3.1-11.8-9.8
				c0-5.2,0-11.4-0.2-17.4c-0.4-14.7-8.6-13.2-8.6-13.2s-42.5-1.3-54.1,0c-11.6,1.3-15,13.2-15,13.2L45.1,145c-0.6,1.4-1,3-0.9,4.6
				c0.2,7.7,0.6,31.2-0.1,31.3c-5.2,0.3-5.3,3.1-4.1,5.7c1.5,3.3,4.8,5.3,8.3,5.2c4.5,0,12.2-0.1,22.1-0.1
				c1.2-14.2,12.3-25.3,25.7-25.3c13.4,0,24.4,11,25.7,25.1c33.7-0.2,72.6-0.4,103.9-0.5c1.5-13.9,12.4-24.6,25.7-24.6
				c13.2,0,24,10.6,25.6,24.4c2,0,3.7,0,5.1,0C302.5,190.8,300.2,184.6,297.2,181z M61.1,169.7h-5.4c-2.3,0-4.2-2-4.2-4.6v-15.5
				c0-2.5,1.9-4.6,4.2-4.6h5.4V169.7z M128.8,124.3c0,5.5-3.2,10-7.2,10H77.5c-5.2,0-8.7-7.6-6.5-14.2l7.4-22.2
				c1.2-3.5,3.7-5.8,6.5-5.8h36.7c4,0,7.2,4.5,7.2,10V124.3z"/>
		</g>
		<g>
			<path class="st1" d="M96.1,169.2c-11.9,0-21.7,9.9-22.6,22.5c-0.1,0.7-0.1,1.4-0.1,2c0,13.6,10.2,24.6,22.7,24.6
				c12.5,0,22.7-11,22.7-24.6c0-0.8,0-1.5-0.1-2.3C117.7,179,108,169.2,96.1,169.2z M96.1,205.5c-6,0-10.8-5.2-10.8-11.7
				c0-0.7,0.1-1.4,0.2-2.1c0.9-5.4,5.3-9.6,10.6-9.6c5.3,0,9.6,4.1,10.6,9.5c0.1,0.7,0.2,1.5,0.2,2.2
				C106.9,200.2,102.1,205.5,96.1,205.5z"/>
		</g>
		<g>
			<path class="st1" d="M251.6,169.2c-11.7,0-21.3,9.5-22.6,21.8c-0.1,0.9-0.2,1.8-0.2,2.8c0,13.6,10.2,24.6,22.7,24.6
				c12.5,0,22.7-11,22.7-24.6c0-1-0.1-2-0.2-3C272.8,178.7,263.2,169.2,251.6,169.2z M251.6,205.5c-6,0-10.8-5.2-10.8-11.7
				c0-1,0.1-1.9,0.4-2.8c1.2-5.1,5.4-8.8,10.4-8.8c5,0,9.2,3.7,10.4,8.7c0.2,0.9,0.4,1.9,0.4,2.9
				C262.4,200.2,257.5,205.5,251.6,205.5z"/>
		</g>
	</g>
	<g>
		<path class="st1" d="M45.3,287.4c1.1,0.6,3.1,1.1,4.7,1.1c2.6,0,3.9-1.3,3.9-3.2c0-2.1-1.3-3.1-3.6-4.6c-3.9-2.3-5.3-5.3-5.3-7.9
			c0-4.5,3-8.3,8.9-8.3c1.9,0,3.6,0.5,4.4,1l-0.9,4.7c-0.8-0.5-2-1-3.6-1c-2.3,0-3.5,1.4-3.5,2.9c0,1.7,0.8,2.6,3.9,4.4
			c3.8,2.3,5.1,5.1,5.1,8.1c0,5.2-3.8,8.6-9.3,8.6c-2.3,0-4.4-0.6-5.4-1.1L45.3,287.4z"/>
		<path class="st1" d="M74.4,280.6h-6.4v7.6h7.3v4.8H62.4v-28.3h12.3v4.8h-6.8v6.5h6.4V280.6z"/>
		<path class="st1" d="M79,265.2c1.7-0.3,3.9-0.5,6-0.5c3,0,5.7,0.4,7.5,2.1c1.7,1.6,2.3,3.4,2.3,5.9c0,3-1.5,5.7-4.4,7v0.1
			c1.9,0.8,2.9,2.6,3.4,5.6c0.5,3.1,1.3,6.6,1.8,7.7h-5.7c-0.4-0.8-1-3.6-1.4-6.8c-0.5-3.5-1.4-4.5-3.2-4.5h-0.8V293H79V265.2z
			 M84.5,277.5h1c2.4,0,3.7-1.9,3.7-4.4c0-2.4-1-4.1-3.4-4.2c-0.5,0-1,0-1.3,0.2V277.5z"/>
		<path class="st1" d="M102.6,293l-6.3-28.3h6.1l2,12.2c0.5,3.1,1,6.5,1.4,9.8h0.1c0.4-3.4,0.8-6.8,1.3-9.9l1.9-12.1h6l-6.5,28.3
			H102.6z"/>
		<path class="st1" d="M123.1,264.7V293h-5.5v-28.3H123.1z"/>
		<path class="st1" d="M141.6,292.6c-0.8,0.4-2.3,0.7-4.2,0.7c-7.3,0-10.7-5.9-10.7-14c0-10.7,5.9-14.8,11.4-14.8
			c1.9,0,3.3,0.4,3.8,0.8l-0.9,4.6c-0.6-0.3-1.3-0.5-2.6-0.5c-3.1,0-5.9,2.7-5.9,9.7c0,6.8,2.6,9.4,5.9,9.4c0.9,0,2-0.2,2.6-0.4
			L141.6,292.6z"/>
		<path class="st1" d="M150.1,264.7V293h-5.5v-28.3H150.1z"/>
		<path class="st1" d="M162.5,293.3c-6.4,0-8.9-6.8-8.9-14.5c0-7.7,3.1-14.4,9.4-14.4c6.8,0,8.7,7.5,8.7,14
			C171.7,289,167.9,293.3,162.5,293.3L162.5,293.3z M162.8,288.6c2.3,0,3.2-4.2,3.2-9.9c0-5-0.8-9.4-3.3-9.4c-2.4,0-3.4,4.4-3.4,9.6
			C159.2,284.4,160.3,288.6,162.8,288.6L162.8,288.6z"/>
		<path class="st1" d="M193.7,280.6h-6.4v7.6h7.3v4.8h-12.7v-28.3h12.3v4.8h-6.8v6.5h6.4V280.6z"/>
		<path class="st1" d="M198.4,293v-28.3h5l4.4,11.1c0.9,2.1,2.2,5.8,3,8.2h0.1c-0.2-2.9-0.5-7.9-0.5-13.1v-6.2h4.8V293h-5l-4.3-10.8
			c-1-2.3-2.2-6-2.9-8.5h-0.1c0.2,2.9,0.4,7.2,0.4,12.9v6.4H198.4z"/>
		<path class="st1" d="M226.7,265.2c1.7-0.3,3.9-0.5,6-0.5c3,0,5.7,0.4,7.5,2.1c1.7,1.6,2.3,3.4,2.3,5.9c0,3-1.5,5.7-4.4,7v0.1
			c1.9,0.8,2.9,2.6,3.4,5.6c0.5,3.1,1.3,6.6,1.8,7.7h-5.7c-0.4-0.8-1-3.6-1.4-6.8c-0.5-3.5-1.4-4.5-3.2-4.5h-0.8V293h-5.5V265.2z
			 M232.2,277.5h1c2.4,0,3.7-1.9,3.7-4.4c0-2.4-1-4.1-3.4-4.2c-0.5,0-1,0-1.3,0.2V277.5z"/>
		<path class="st1" d="M251.7,264.7v18.4c0,4.2,1.2,5.4,2.7,5.4c1.6,0,2.7-1.1,2.7-5.4v-18.4h5.5v17.4c0,7.3-2.8,11.2-8.2,11.2
			c-5.9,0-8.2-4.1-8.2-11.2v-17.4H251.7z"/>
		<path class="st1" d="M270.4,269.8h-5v-5.1h15.5v5.1h-5V293h-5.5V269.8z"/>
		<path class="st1" d="M286.9,286.5l-1.3,6.5h-5.3l6.1-28.3h6.6l5.5,28.3h-5.4l-1.2-6.5H286.9z M291.4,282.3l-0.9-5.9
			c-0.3-1.7-0.7-4.6-0.9-6.4h-0.1c-0.3,1.9-0.7,4.8-1,6.4l-1,5.9H291.4z"/>
	</g>
</g>
</svg>
