<?xml version="1.0" encoding="utf-8"?>
<!-- Generator: Adobe Illustrator 22.1.0, SVG Export Plug-In . SVG Version: 6.00 Build 0)  -->
<svg version="1.1" id="Capa_1" xmlns="http://www.w3.org/2000/svg" xmlns:xlink="http://www.w3.org/1999/xlink" x="0px" y="0px"
	 viewBox="0 0 443.2 173.6" style="enable-background:new 0 0 443.2 173.6;" xml:space="preserve">
<style type="text/css">
	.st0{fill:#B2B2B2;}
</style>
<g>
	<g>
		<path class="st0" d="M347,62.3c0,8.4-3.2,14.6-9.7,18.7c5.9,3.4,8.8,9.1,8.8,17.3v17.3c0,0.8-0.3,1.6-1,2.2c-0.7,0.7-1.5,1-2.3,1
			h-2.2c-2.1,0-3.1-1.1-3.1-3.2v-17c0-8.8-5.8-13.2-17.5-13.2h-25.8v30.2c0,2.1-1,3.2-3.1,3.2h-2.2c-0.8,0-1.6-0.3-2.2-1
			c-0.7-0.6-1-1.4-1-2.2V44.3c0-0.8,0.3-1.6,1-2.2c0.6-0.6,1.4-1,2.2-1H321C338.4,41.1,347,48.1,347,62.3 M338.5,62.6
			c0-8.7-5.8-13.1-17.3-13.1h-27.1v27.4h25.3c5.7,0,10.2-1.1,13.5-3.4C336.7,70.9,338.5,67.3,338.5,62.6"/>
		<path class="st0" d="M418.3,115.7c0,2.1-1.1,3.1-3.4,3.1h-2.3c-1.5,0-2.6-0.6-3.1-1.9l-9.3-21.6h-35.5l-9.6,21.7
			c-0.8,1.2-1.7,1.8-2.9,1.8h-2.6c-2.1,0-3.2-1-3.2-3.1c0-0.4,0.2-0.9,0.5-1.5l-0.1,0.1L378.4,43c0.8-1.3,1.8-1.9,3-1.9h2.9
			c1.5,0,2.4,0.7,3,1.9l30.6,71.2C418.2,114.8,418.3,115.3,418.3,115.7 M396.7,86.9l-13.9-31.8l-14.3,31.8H396.7z"/>
		<path class="st0" d="M96.8,115.7c0,2.1-1.1,3.1-3.4,3.1H91c-1.5,0-2.6-0.6-3.1-1.9l-9.3-21.6H43.1L33.5,117
			c-0.8,1.2-1.7,1.8-2.9,1.8H28c-2.1,0-3.2-1-3.2-3.1c0-0.4,0.2-0.9,0.5-1.5l-0.1,0.1L56.9,43c0.8-1.3,1.8-1.9,3-1.9h2.9
			c1.5,0,2.4,0.7,3,1.9l30.6,71.2C96.6,114.8,96.8,115.3,96.8,115.7 M75.1,86.9L61.2,55.2L46.9,86.9H75.1z"/>
		<path class="st0" d="M161.4,115.6c0,0.8-0.3,1.6-0.9,2.2c-0.6,0.7-1.3,1-2.2,1h-2.2c-2.1,0-3.2-1.1-3.2-3.2v-33h-47.8v33
			c0,0.8-0.3,1.6-1,2.2c-0.7,0.7-1.4,1-2.2,1h-2.2c-0.8,0-1.6-0.3-2.2-1c-0.7-0.6-1-1.4-1-2.2V44.3c0-0.8,0.3-1.6,1-2.2
			c0.6-0.6,1.4-1,2.2-1h2.2c0.8,0,1.6,0.3,2.2,1s1,1.4,1,2.2v29.9H153V44.3c0-2.1,1.1-3.2,3.2-3.2h2.2c0.8,0,1.6,0.3,2.2,1
			c0.6,0.7,0.9,1.4,0.9,2.2L161.4,115.6L161.4,115.6z"/>
		<path class="st0" d="M67.5,28.3L64,20.7H51l-3.6,7.6h-2.1L56.8,4h1.7l11,24.3H67.5z M57.6,6.7L51.8,19h11.4L57.6,6.7z"/>
		<path class="st0" d="M98.6,28.6c-3.1,0-5.6-0.6-7.5-1.7c-2.4-1.4-3.6-3.5-3.6-6.4v-0.9h1.8v0.7c0,4.4,3.1,6.6,9.3,6.6
			c2.1,0,3.9-0.3,5.3-1c1.8-0.8,2.8-2.1,2.8-3.9c0-1.2-0.3-2.2-1-2.8c-0.5-0.5-1.5-1-2.8-1.4c-0.7-0.2-2.4-0.6-5.1-1.1
			c-3.1-0.6-5.2-1.2-6.2-1.8c-2.2-1.1-3.3-2.7-3.3-4.9c0-4.2,3.2-6.2,9.6-6.2c6.7,0,10.1,2.6,10.2,7.8h-1.8c-0.1-2.5-1-4.2-2.6-5.1
			c-1.3-0.7-3.2-1.1-5.8-1.1c-5.2,0-7.8,1.5-7.8,4.6c0,1.5,0.7,2.6,2.1,3.3c1,0.5,2.6,1,5,1.4c4.4,0.8,7.3,1.6,8.7,2.5
			c1.7,1.1,2.6,2.7,2.6,5c0,2.2-1.2,3.9-3.5,5.1C103.3,28.1,101.1,28.6,98.6,28.6"/>
		<rect x="129.3" y="4" class="st0" width="1.8" height="24.3"/>
		<path class="st0" d="M162.3,28.6c-3.1,0-5.6-0.6-7.5-1.7c-2.4-1.4-3.6-3.5-3.6-6.4v-0.9h1.8v0.7c0,4.4,3.1,6.6,9.3,6.6
			c2.1,0,3.9-0.3,5.3-1c1.8-0.8,2.8-2.1,2.8-3.9c0-1.2-0.3-2.2-1-2.8c-0.5-0.5-1.5-1-2.8-1.4c-0.7-0.2-2.4-0.6-5.1-1.1
			c-3.1-0.6-5.2-1.2-6.2-1.8c-2.2-1.1-3.3-2.7-3.3-4.9c0-4.2,3.2-6.2,9.6-6.2c6.7,0,10.1,2.6,10.2,7.8H170c-0.1-2.5-1-4.2-2.6-5.1
			c-1.3-0.7-3.2-1.1-5.8-1.1c-5.2,0-7.8,1.5-7.8,4.6c0,1.5,0.7,2.6,2.1,3.3c1,0.5,2.6,1,5,1.4c4.4,0.8,7.3,1.6,8.7,2.5
			c1.7,1.1,2.6,2.7,2.6,5c0,2.2-1.2,3.9-3.5,5.1C167,28.1,164.9,28.6,162.3,28.6"/>
		<polygon class="st0" points="202.2,5.7 202.2,28.3 200.3,28.3 200.3,5.7 191,5.7 191,4 211.4,4 211.4,5.7 		"/>
		<polygon class="st0" points="230.5,28.3 230.5,4 249,4 249,5.7 232.2,5.7 232.2,14.8 247.1,14.8 247.1,16.5 232.2,16.5 
			232.2,26.6 249.1,26.6 249.1,28.3 		"/>
		<path class="st0" d="M288.1,28.3L270.5,6.7v21.6h-1.8V4h1.9c2.1,2.6,5,6.2,8.8,10.8c4.1,4.9,7.1,8.5,8.8,10.7V4h1.8v24.3H288.1z"
			/>
		<path class="st0" d="M332.6,9.4c-1.8-2.6-4.7-3.9-8.8-3.9c-3.4,0-6.2,1-8.2,2.9s-3.1,4.6-3.1,7.9s1,5.8,2.9,7.8
			c1.9,1.9,4.6,2.9,8,2.9c3.9,0,6.8-1.3,8.8-4l1.6,1c-2.4,3.1-5.9,4.7-10.4,4.7c-3.9,0-7-1.1-9.3-3.3s-3.4-5.2-3.4-8.9
			c0-3.9,1.2-6.9,3.6-9.2s5.6-3.4,9.6-3.4c4.7,0,8.1,1.6,10.3,4.7L332.6,9.4z"/>
		<rect x="354.7" y="4" class="st0" width="1.8" height="24.3"/>
		<path class="st0" d="M397.4,28.3l-3.5-7.6h-13l-3.6,7.6h-2.1L386.7,4h1.7l11,24.3H397.4z M387.6,6.7L381.7,19h11.4L387.6,6.7z"/>
		<path class="st0" d="M227,96.9h-19.3c-1.6,0-2.9-1.3-2.9-2.9s1.3-2.9,2.9-2.9h13.5V70.5c0-1.6,1.3-2.9,2.9-2.9
			c1.6,0,2.9,1.3,2.9,2.9L227,96.9L227,96.9z"/>
		<g>
			<path class="st0" d="M223.6,61.3c0.7,0,1.5,0.1,2.2,0.1C225,61.4,224.3,61.3,223.6,61.3L223.6,61.3z"/>
			<path class="st0" d="M223.6,37v13.6c22.5,0,40.9,18.3,40.9,40.9s-18.3,40.9-40.9,40.9v37l27.1-30.6c16.4-9.4,27.4-27,27.4-47.3
				C278.1,61.4,253.7,37,223.6,37z"/>
		</g>
		<g>
			<g>
				<polygon class="st0" points="252.9,91.7 252.9,91.5 254.5,91.5 254.5,91.6 				"/>
			</g>
			<g>
				<path class="st0" d="M225.3,62.2h-0.5c-0.8-0.1-1.6-0.1-2.4,0h-0.5l-0.1-1.6h0.5c0.9-0.1,1.7-0.1,2.6,0h0.5L225.3,62.2z"/>
			</g>
			<g>
				<polygon class="st0" points="194.3,91.7 192.7,91.7 192.7,91.5 194.2,91.5 193.5,91.5 194.2,91.5 				"/>
			</g>
			<g>
				<path class="st0" d="M223.6,170.5L196,139.3c-17.1-9.9-27.7-28.2-27.7-47.9c0-30.5,24.8-55.3,55.3-55.3s55.3,24.8,55.3,55.3
					c0,19.7-10.6,38-27.7,47.9L223.6,170.5z M223.6,37.8c-29.6,0-53.7,24.1-53.7,53.7c0,19.2,10.3,37,27,46.6l0.2,0.2l26.5,30
					l26.7-30.1c16.6-9.6,27-27.4,27-46.6C277.3,61.9,253.2,37.8,223.6,37.8z M223.6,133.1c-23,0-41.6-18.7-41.6-41.6
					s18.7-41.6,41.6-41.6c23,0,41.6,18.7,41.6,41.6S246.5,133.1,223.6,133.1z M223.6,51.4c-22.1,0-40.1,18-40.1,40.1
					s18,40.1,40.1,40.1s40.1-18,40.1-40.1S245.7,51.4,223.6,51.4z"/>
			</g>
		</g>
		<g>
			<path class="st0" d="M223.6,133.1c-23,0-41.6-18.7-41.6-41.6s18.7-41.6,41.6-41.6c23,0,41.6,18.7,41.6,41.6
				S246.5,133.1,223.6,133.1z M223.6,51.4c-22.1,0-40.1,18-40.1,40.1s18,40.1,40.1,40.1s40.1-18,40.1-40.1S245.7,51.4,223.6,51.4z
				 M223.6,122.4c-17,0-30.9-13.9-30.9-30.9s13.9-30.9,30.9-30.9s30.9,13.9,30.9,30.9S240.6,122.4,223.6,122.4z M223.6,62.1
				c-16.2,0-29.3,13.2-29.3,29.3c0,16.2,13.2,29.3,29.3,29.3s29.3-13.2,29.3-29.3C252.9,75.3,239.8,62.1,223.6,62.1z"/>
		</g>
		<path class="st0" d="M223.6,121.6c-16.6,0-30.1-13.5-30.1-30.1s13.5-30.1,30.1-30.1V50.6c-22.5,0-40.9,18.3-40.9,40.9
			s18.3,40.9,40.9,40.9V121.6z"/>
	</g>
	<g>
		<path class="st0" d="M227,96.9h-19.3c-1.6,0-2.9-1.3-2.9-2.9s1.3-2.9,2.9-2.9h13.5V70.5c0-1.6,1.3-2.9,2.9-2.9
			c1.6,0,2.9,1.3,2.9,2.9L227,96.9L227,96.9z"/>
		<g>
			<path class="st0" d="M223.6,61.3c0.7,0,1.5,0.1,2.2,0.1C225,61.4,224.3,61.3,223.6,61.3L223.6,61.3z"/>
			<path class="st0" d="M223.6,37v13.6c22.5,0,40.9,18.3,40.9,40.9s-18.3,40.9-40.9,40.9v37l27.1-30.6c16.4-9.4,27.4-27,27.4-47.3
				C278.1,61.4,253.7,37,223.6,37z"/>
		</g>
		<g>
			<g>
				<polygon class="st0" points="252.9,91.7 252.9,91.5 254.5,91.5 254.5,91.6 				"/>
			</g>
			<g>
				<path class="st0" d="M225.3,62.2h-0.5c-0.8-0.1-1.6-0.1-2.4,0h-0.5l-0.1-1.6h0.5c0.9-0.1,1.7-0.1,2.6,0h0.5L225.3,62.2z"/>
			</g>
			<g>
				<polygon class="st0" points="194.3,91.7 192.7,91.7 192.7,91.5 194.2,91.5 193.5,91.5 194.2,91.5 				"/>
			</g>
			<g>
				<path class="st0" d="M223.6,170.5L196,139.3c-17.1-9.9-27.7-28.2-27.7-47.9c0-30.5,24.8-55.3,55.3-55.3s55.3,24.8,55.3,55.3
					c0,19.7-10.6,38-27.7,47.9L223.6,170.5z M223.6,37.8c-29.6,0-53.7,24.1-53.7,53.7c0,19.2,10.3,37,27,46.6l0.2,0.2l26.5,30
					l26.7-30.1c16.6-9.6,27-27.4,27-46.6C277.3,61.9,253.2,37.8,223.6,37.8z M223.6,133.1c-23,0-41.6-18.7-41.6-41.6
					s18.7-41.6,41.6-41.6c23,0,41.6,18.7,41.6,41.6S246.5,133.1,223.6,133.1z M223.6,51.4c-22.1,0-40.1,18-40.1,40.1
					s18,40.1,40.1,40.1s40.1-18,40.1-40.1S245.7,51.4,223.6,51.4z"/>
			</g>
		</g>
		<g>
			<path class="st0" d="M223.6,133.1c-23,0-41.6-18.7-41.6-41.6s18.7-41.6,41.6-41.6c23,0,41.6,18.7,41.6,41.6
				S246.5,133.1,223.6,133.1z M223.6,51.4c-22.1,0-40.1,18-40.1,40.1s18,40.1,40.1,40.1s40.1-18,40.1-40.1S245.7,51.4,223.6,51.4z
				 M223.6,122.4c-17,0-30.9-13.9-30.9-30.9s13.9-30.9,30.9-30.9s30.9,13.9,30.9,30.9S240.6,122.4,223.6,122.4z M223.6,62.1
				c-16.2,0-29.3,13.2-29.3,29.3c0,16.2,13.2,29.3,29.3,29.3s29.3-13.2,29.3-29.3C252.9,75.3,239.8,62.1,223.6,62.1z"/>
		</g>
		<path class="st0" d="M223.6,121.6c-16.6,0-30.1-13.5-30.1-30.1s13.5-30.1,30.1-30.1V50.6c-22.5,0-40.9,18.3-40.9,40.9
			s18.3,40.9,40.9,40.9V121.6z"/>
	</g>
</g>
</svg>
